<svg width="545" height="424" version="1.1" xmlns="http://www.w3.org/2000/svg" desc="Created with imagetracer.js version 1.2.6" ><path fill="rgb(0,0,0)" stroke="rgb(0,0,0)" stroke-width="1" opacity="0" d="M 0 0 L 545 0 L 545 424 L 0 424 L 0 0 Z M 272 10 L 270 13 L 264 16 L 265 18 L 264 17 L 259 22 L 260 23 L 249 38 L 238 59 L 231 78 L 227 99 L 225 99 L 226 101 L 225 121 L 224 122 L 224 148 L 225 151 L 230 154 L 257 186 L 257 188 L 260 189 L 259 191 L 263 193 L 262 195 L 264 195 L 263 197 L 267 198 L 267 202 L 272 209 Q 271 211 274 210 L 274 212 L 277 211 L 278 211 L 278 207 L 280 207 L 281 203 L 295 182 L 323 152 L 324 149 L 324 129 L 323 128 L 323 114 L 322 113 Q 320 106 323 105 L 321 104 L 322 99 L 320 98 L 317 80 L 311 63 Q 302 42 289 27 L 289 25 L 284 20 L 284 19 L 277 12 Q 273 13 274 10 L 272 10 Z M 110 87 L 110 96 L 109 97 L 109 110 L 110 111 L 111 130 L 118 159 L 130 186 Q 136 198 146 208 L 145 210 Q 146 212 148 210 L 163 226 L 163 228 L 165 227 Q 179 239 198 248 L 230 259 L 245 262 L 251 262 L 257 264 L 257 261 L 255 261 L 256 259 L 255 259 L 246 248 L 238 232 L 231 213 L 232 209 L 231 209 L 225 188 L 222 160 L 209 146 L 188 127 L 184 124 L 185 123 L 184 122 L 182 122 Q 179 121 181 120 L 180 119 L 178 119 L 178 118 L 165 109 Q 161 110 162 107 L 161 107 L 160 106 L 159 106 L 155 104 L 153 102 L 152 102 L 151 101 L 150 101 L 149 100 L 148 100 L 147 99 L 146 99 L 145 98 L 144 98 L 143 97 L 142 97 L 141 95 L 138 96 L 136 94 L 135 94 L 134 92 L 131 93 L 131 91 L 128 92 L 126 90 L 125 90 Q 122 91 123 89 L 122 89 L 110 87 Z M 434 87 L 428 89 L 424 88 L 423 90 L 421 89 L 420 91 L 418 90 L 417 92 L 415 91 L 414 93 L 413 92 L 412 94 L 410 93 L 409 95 L 408 94 L 407 96 L 405 95 L 404 97 L 403 96 L 402 98 L 400 99 L 398 98 L 397 100 L 396 99 L 395 101 L 394 100 L 393 102 L 380 109 Q 377 108 378 111 L 375 111 L 375 113 L 372 114 Q 369 113 370 116 L 369 115 L 367 116 L 367 118 Q 366 120 365 118 L 363 119 L 363 121 Q 362 123 361 121 L 359 122 L 359 124 L 336 144 Q 330 147 328 155 L 328 166 L 327 167 L 326 184 L 321 207 L 319 207 L 320 211 L 318 211 L 319 213 L 312 234 L 295 263 L 322 258 L 340 252 L 367 238 L 377 230 L 379 230 L 383 225 Q 386 226 385 224 L 394 215 L 395 215 L 395 213 Q 410 197 420 177 L 431 144 L 434 127 L 434 118 L 435 117 L 435 88 L 434 87 Z M 228 161 L 229 164 L 230 185 L 236 211 L 235 216 L 237 218 L 237 217 L 238 217 L 237 220 L 239 220 L 238 223 L 240 223 L 239 225 L 241 227 L 241 226 L 242 226 L 241 230 L 243 230 Q 242 232 245 231 L 245 235 L 248 241 L 260 259 L 259 261 L 262 262 L 261 264 L 267 268 L 266 270 L 269 271 L 269 269 L 276 275 Q 278 274 276 273 L 287 262 L 288 262 L 289 259 L 292 257 Q 302 244 308 227 L 310 227 L 309 225 L 311 225 L 310 222 L 312 222 L 311 219 L 313 219 L 312 216 L 314 216 L 313 214 L 318 195 L 320 175 L 321 174 L 321 165 L 322 164 Q 323 160 321 161 Q 304 175 293 194 L 292 193 L 280 213 L 276 224 L 270 213 Q 271 210 269 211 L 269 210 L 268 209 L 268 208 L 267 207 L 267 206 L 266 205 Q 263 204 265 203 L 264 200 L 263 200 Q 260 199 262 198 L 261 196 L 260 196 L 260 195 L 259 193 L 257 193 L 258 191 L 257 191 L 251 184 Q 252 180 249 181 Q 244 179 247 178 Q 248 175 246 176 L 244 173 L 241 172 L 239 170 L 228 161 Z M 246 173 Q 244 176 247 175 L 246 173 Z M 287 263 L 280 271 L 288 264 L 287 263 Z M 60 305 L 59 306 L 43 307 L 37 311 L 35 310 L 28 318 L 35 313 L 27 322 L 23 336 L 25 335 L 27 348 Q 35 359 52 362 L 52 364 L 54 363 Q 56 362 55 365 L 57 364 Q 59 363 58 366 L 60 365 Q 68 368 72 374 L 71 376 L 73 376 L 72 378 L 74 378 L 73 379 Q 75 387 72 391 L 72 393 L 64 400 L 59 401 Q 53 403 54 400 L 53 400 L 44 398 Q 33 391 30 377 L 27 378 L 27 402 L 30 402 L 36 397 L 47 401 L 47 403 L 49 402 Q 53 400 52 404 L 54 403 Q 59 402 61 404 L 61 402 L 65 403 L 65 401 L 69 400 L 72 401 L 72 399 L 74 400 L 73 399 L 79 395 L 85 386 L 87 377 L 85 363 L 82 358 L 76 352 L 77 350 L 75 351 L 74 348 L 71 349 L 70 346 L 68 347 Q 65 348 66 346 L 65 346 L 64 345 L 63 345 Q 60 346 61 344 Q 60 341 59 343 Q 55 344 56 342 L 55 342 L 42 337 Q 35 333 35 322 L 37 322 L 36 318 Q 38 319 40 316 L 39 314 L 48 309 Q 59 308 65 312 L 73 324 Q 72 330 76 333 L 78 332 L 79 329 L 79 310 L 80 309 L 76 307 L 74 310 L 70 310 L 64 307 L 60 307 L 60 305 Z M 131 305 L 130 307 L 128 306 L 127 308 L 125 307 L 124 309 L 123 308 L 122 310 L 120 309 L 119 311 L 118 310 L 117 312 L 116 311 L 114 314 L 113 313 L 111 316 L 110 315 L 101 325 L 110 318 L 98 332 L 93 350 L 93 360 L 95 371 L 105 389 L 118 398 L 133 403 L 148 403 L 165 397 L 167 397 L 167 396 L 169 396 L 170 394 L 172 395 L 179 388 L 178 387 L 180 386 Q 182 385 180 384 L 182 383 L 181 382 L 186 371 L 187 356 L 188 355 L 186 339 L 184 335 L 185 333 L 184 332 L 184 331 L 181 329 L 182 327 L 181 326 L 181 325 L 177 323 L 178 321 Q 177 318 174 319 L 171 315 L 169 314 Q 165 315 166 312 L 165 312 L 164 311 L 163 311 L 156 308 Q 153 309 154 307 L 153 307 L 142 305 L 138 306 Q 132 308 131 305 Z M 194 308 L 193 310 L 193 312 L 194 313 L 199 312 L 201 312 L 202 314 L 202 397 L 201 398 L 194 399 Q 193 402 197 401 L 199 401 L 214 400 L 216 400 L 222 401 L 220 398 L 220 314 L 222 313 L 221 315 L 223 314 Q 222 310 228 312 L 229 313 L 228 311 L 229 309 L 228 309 L 195 309 L 194 308 Z M 325 308 L 324 309 L 272 309 L 272 312 L 279 312 L 279 313 L 279 396 L 279 398 L 274 397 L 273 401 L 276 401 L 280 400 L 302 401 L 304 401 Q 306 402 305 400 Q 304 397 300 398 L 298 397 L 298 357 Q 299 354 303 355 L 329 395 L 329 397 L 335 401 L 349 401 L 350 400 L 354 401 L 353 400 Q 354 397 352 398 L 328 365 L 321 357 Q 318 358 319 355 Q 333 357 341 351 L 346 345 L 348 338 Q 349 325 343 320 L 344 317 L 343 317 L 342 316 Q 340 311 339 314 L 338 313 L 337 313 L 336 312 L 335 312 L 334 310 L 330 311 L 330 309 L 325 310 L 325 308 Z M 430 308 L 429 309 L 362 309 L 361 311 L 361 312 L 368 312 L 368 313 L 368 398 L 361 399 L 362 401 L 370 401 L 372 401 L 375 400 Q 385 399 392 402 L 393 401 L 433 401 L 435 398 L 434 396 L 434 382 L 433 381 L 434 378 Q 435 375 431 376 L 431 379 L 426 387 Q 421 395 411 398 L 388 398 L 387 397 L 387 395 L 387 355 L 389 353 Q 399 351 405 355 Q 411 358 412 367 Q 411 371 414 370 L 414 343 L 415 342 Q 416 337 412 339 L 412 341 L 410 346 Q 404 353 389 351 L 389 349 L 387 349 L 387 312 L 409 312 L 412 314 L 411 316 L 413 316 Q 412 318 415 317 L 416 316 L 421 322 L 419 320 L 418 322 Q 420 325 422 324 L 421 326 L 424 327 L 423 329 L 425 329 L 424 331 L 426 330 L 427 333 L 429 332 L 430 333 L 429 331 Q 427 325 431 326 L 430 325 Q 428 316 432 313 L 430 313 L 431 311 L 430 308 Z M 441 308 L 441 311 L 440 313 L 443 313 L 445 313 L 451 320 L 451 321 Q 453 320 452 327 L 451 330 L 452 331 L 452 384 L 453 385 L 451 394 L 445 399 Q 442 398 443 401 L 446 400 L 447 401 L 464 401 L 463 400 Q 464 397 462 398 L 455 391 Q 457 384 454 383 L 454 331 L 456 328 L 457 328 L 456 331 L 459 332 L 458 331 L 462 334 Q 461 337 464 336 L 469 342 L 469 344 L 474 348 Q 473 351 476 350 L 480 355 L 480 358 L 482 357 Q 484 358 482 360 L 483 362 L 485 361 L 489 366 L 488 367 L 489 369 L 491 368 L 495 373 L 494 375 L 496 374 L 502 381 L 501 383 L 503 382 L 515 398 Q 518 402 525 401 L 525 318 L 527 315 L 528 317 L 528 316 L 530 316 L 531 314 L 529 314 L 531 312 L 534 313 L 533 311 L 534 309 L 533 309 L 514 309 L 513 308 L 512 310 L 512 312 L 516 313 L 520 318 L 520 317 L 518 313 L 521 317 L 523 324 L 523 376 L 522 377 L 504 355 L 500 351 L 501 350 Q 499 345 498 348 L 498 347 L 495 346 L 496 344 L 492 340 L 481 328 L 476 323 Q 473 322 474 319 L 467 311 Q 465 306 464 309 L 442 309 L 441 308 Z M 28 318 L 26 321 L 28 320 L 28 318 Z M 345 318 L 344 320 L 346 321 L 345 318 Z M 262 375 L 262 377 L 260 378 L 261 381 L 258 382 L 260 382 L 260 383 Q 257 382 258 386 L 254 388 L 252 392 Q 249 391 250 394 L 243 398 Q 238 397 237 399 Q 229 398 230 401 L 239 401 L 240 400 L 241 401 L 265 401 L 266 402 L 266 376 L 265 376 L 262 375 Z M 225 398 L 223 401 Q 224 403 226 401 Q 230 402 229 399 L 225 398 Z M 331 399 Q 329 402 332 401 L 331 399 Z " /><path fill="rgb(0,0,0)" stroke="rgb(0,0,0)" stroke-width="1" opacity="0" d="M 263.5 263 L 266.5 267 L 263.5 263 Z " /><path fill="rgb(0,0,0)" stroke="rgb(0,0,0)" stroke-width="1" opacity="0" d="M 133.5 309 L 147.5 309 L 150.5 311 L 152.5 311 Q 154.8 310.3 154 312.5 Q 156.5 310.7 159 315.5 L 163 322.5 L 167 337.5 Q 165.5 343 168 344.5 L 168 370.5 L 166 380.5 Q 162.3 384.5 162 391 L 160 391.5 L 161 392.5 L 156.5 397 L 146.5 401 L 133.5 401 Q 123.8 398.3 119 390.5 L 115 380.5 L 112 365.5 L 112 343.5 L 114.5 333 L 116 333.5 L 115 328.5 L 117 328.5 L 116 325.5 L 118 325.5 L 117 323.5 L 119 323.5 L 118 321.5 L 120 321.5 L 119 318.5 L 124.5 312 L 126.5 312 L 133.5 309 Z M 124 315 L 120 320 L 124 317 L 124 315 Z " /><path fill="rgb(0,0,0)" stroke="rgb(0,0,0)" stroke-width="1" opacity="0" d="M 298 312 L 315.5 312 L 318.5 314 L 320.5 313 L 327 320.5 L 329 328.5 L 329 338.5 L 326 346.5 L 323.5 349 L 314.5 353 L 298 353 L 298 312 Z " /><path fill="rgb(0,0,0)" stroke="rgb(0,0,0)" stroke-width="1" opacity="0" d="M 339.5 315 L 340.5 317 L 339.5 315 Z " /><path fill="rgb(212,235,237)" stroke="rgb(212,235,237)" stroke-width="1" opacity="0.9921568627450981" d="M 271.5 12 L 273.5 12 L 283 21.5 L 288 29 Q 290.7 27.9 290 30.5 Q 301.6 43.9 309 61.5 L 308.5 63 Q 311.1 62.2 310 65.5 L 312 69.5 L 311.5 71 Q 314.1 70.2 313 73.5 L 314 76.5 L 312 75.5 L 313 74.5 L 310 71.5 L 311 68.5 L 309 64 Q 306.3 65.1 307 62.5 L 307 60.5 L 306 57 Q 302.7 58.3 304 53.5 L 303 53.5 L 302.5 55 L 301.5 53 Q 304.1 53.7 303 51 L 298 51 L 298 49.5 L 297 49.5 L 294.5 54 L 294 52.5 L 297 47.5 L 296 45 Q 298.7 46.1 298 43.5 L 296.5 44 L 295 43.5 L 296.5 41 L 292.5 38 Q 291.4 40.8 288 40 Q 289.1 42.7 286.5 42 L 287 43.5 L 286.5 45 L 285.5 43 L 284 43.5 L 287 34 Q 284.3 35.1 285 32.5 L 284 32.5 L 282 35.5 L 279.5 40 L 278 39.5 L 277.5 42 L 276.5 40 L 276 45.5 L 277 48.5 L 278 52.5 L 276 63.5 L 276 109.5 L 277 110.5 L 278 143.5 L 279 144.5 L 279 174 L 287 175 L 286 179 L 290.5 180 L 294 177.5 L 292.5 175 L 294 174.5 L 289 173 L 288.5 166 Q 287.3 168.3 286 165.5 L 286 159 L 293 159 L 293.5 161 L 294 156 L 299 152.5 L 299.5 151 L 308.5 151 L 310 149.5 L 310.5 142 L 312.5 142 L 314 141.5 L 310 141 L 310 135 L 313 134.5 L 313 127.5 L 315.5 126 Q 318.3 127.3 316 128.5 L 317 143 L 320 141.5 L 321 126.5 L 320 123.5 Q 322.8 121.8 321 115.5 L 318 102.5 L 318 95.5 L 316.5 94 Q 314.3 94.8 315 92.5 L 317 92.5 L 314 78.5 L 315 78.5 L 322 113.5 L 323 147.5 L 323 149.5 L 310 162.5 Q 310.8 164.8 308.5 164 L 285 193.5 L 275.5 211 L 269 198.5 L 259 185.5 L 262 183.5 L 260.5 179 L 259 181.5 L 260 184 L 254 179.5 L 252 176.5 L 231 154.5 L 231 153 L 225 148.5 L 226 108.5 L 232 77 Q 234.7 78.1 234 75.5 L 233.5 74 Q 235.8 74.8 235 72.5 L 234.5 71 Q 236.8 71.8 236 69.5 L 235.5 68 Q 237.8 68.8 237 66.5 L 238 64.5 L 237.5 63 Q 239.8 63.8 239 61.5 L 240 59.5 L 239.5 58 Q 241.8 58.8 241 56.5 L 245 47.5 L 256 31.5 L 255.5 30 L 257 30.5 Q 258.3 24.7 263 22.5 Q 260.2 20.8 264.5 19 Q 267.8 20.1 267 17.5 L 269 14 Q 271.8 15 271.5 12 Z M 279 26 Q 277 29 280 28 L 279 26 Z M 282 28 Q 280 31 283 30 L 282 28 Z M 277 35 L 276 38 L 277 38 L 277 35 Z M 299 45 Q 296 50 300 49 L 301 50 Q 302 47 299 48 L 299 45 Z M 277 126 L 276 134 L 277 134 L 277 126 Z M 319 144 L 315 148 L 317 148 L 319 148 L 319 144 Z M 245 162 L 243 165 L 245 164 L 245 162 Z M 303 162 Q 302 165 305 164 Q 306 161 303 162 Z M 300 163 L 300 165 L 302 164 L 300 163 Z M 305 164 L 305 166 L 307 165 L 305 164 Z M 298 167 L 296 170 L 298 169 L 298 167 Z M 296 173 L 295 176 L 296 176 L 296 173 Z M 256 175 Q 254 179 257 181 L 258 181 L 256 175 Z M 282 181 L 280 189 L 282 192 L 283 190 L 283 192 L 284 192 Q 283 189 286 190 L 287 191 L 286 189 L 289 182 Q 286 181 287 184 L 286 184 Q 287 179 282 181 Z M 278 183 L 277 192 L 276 193 L 278 198 L 279 196 L 278 194 L 279 192 L 278 190 L 279 187 L 278 183 Z M 269 194 L 267 196 L 269 196 L 269 194 Z " /><path fill="rgb(212,235,237)" stroke="rgb(212,235,237)" stroke-width="1" opacity="0.9921568627450981" d="M 294.5 46 L 295 48.5 L 294 48.5 L 294.5 46 Z " /><path fill="rgb(212,235,237)" stroke="rgb(212,235,237)" stroke-width="1" opacity="0.9921568627450981" d="M 277.5 73 L 278 85.5 L 277 85.5 L 277.5 73 Z " /><path fill="rgb(212,235,237)" stroke="rgb(212,235,237)" stroke-width="1" opacity="0.9921568627450981" d="M 277.5 87 L 278 92.5 L 277 92.5 L 277.5 87 Z " /><path fill="rgb(212,235,237)" stroke="rgb(212,235,237)" stroke-width="1" opacity="0.9921568627450981" d="M 114.5 88 L 115 90 L 120.5 91 L 122 90.5 L 121.5 92 L 126.5 93 L 128 92.5 L 127.5 94 L 130.5 94 L 136.5 97 L 138.5 97 Q 140.8 96.3 140 98.5 L 142 98.5 L 141.5 100 L 143.5 99 L 146 100.5 L 145.5 102 L 147.5 101 L 150 102 L 150.5 104 L 152 103.5 L 152.5 105 L 154 104.5 Q 153.3 106.8 155.5 106 L 159 107 L 159.5 109 L 161 108.5 L 161.5 110 L 163 109.5 Q 162.2 112.1 165.5 111 L 167.5 114 Q 168.8 111.8 170 114.5 Q 169.3 116.8 171.5 116 Q 173.8 120.2 176 118.5 L 177.5 121 L 179 120.5 L 178.5 122 L 182.5 125 Q 183.7 122.7 185 125.5 L 184.5 127 Q 186.8 126.3 186 128.5 L 187.5 128 L 192 131.5 L 194.5 135 L 196 134.5 Q 193.8 135.8 196.5 137 L 198 136.5 L 215 154.5 L 215 156 Q 217.7 154.9 217 157.5 L 220 162 Q 223.3 160.7 222 165.5 L 221 168.5 L 221 172.5 L 223 173 L 223 175.5 L 222 180 Q 225.3 178.7 224 183.5 L 223 185.5 L 225 188.5 L 224 192 Q 226.7 190.9 226 193.5 L 225 197 L 227 197.5 L 226 201 L 228 201.5 L 227 205 Q 229.7 203.9 229 206.5 L 228 209 L 230 209.5 L 229 211.5 Q 232.1 213.3 230.5 215 Q 232.8 214.3 232 216.5 L 231.5 218 Q 233.8 217.3 233 219.5 L 232.5 221 L 234 221.5 Q 231.5 223 235 224.5 L 236 227.5 L 235.5 229 Q 238.1 228.2 237 231.5 L 245 245.5 L 244 246.5 L 247 249.5 Q 245.9 252.8 248.5 252 L 249.5 255 L 252 256.5 L 251.5 258 L 255 260.5 L 249.5 262 Q 248.8 259.3 244.5 260 L 242 261 Q 243.3 257.7 238.5 259 L 237 259.5 Q 237.9 256.5 233.5 258 L 232 258.5 Q 232.8 255.9 229.5 257 L 228 257.5 L 228.5 256 L 213.5 252 L 212 252.5 L 212.5 251 L 198.5 246 L 197 246.5 L 197.5 245 L 195.5 246 L 195.5 244 L 190.5 242 L 189 242.5 Q 191.3 241.3 188.5 240 L 180.5 236 L 179 236.5 L 179.5 235 L 174.5 233 L 166.5 226 Q 164.8 228.8 163 224.5 Q 165.3 223.3 162.5 222 Q 160.3 222.8 161 220.5 L 157.5 218 L 156.5 219 L 153 215.5 L 153 213.5 L 151 210.5 Q 149 206.8 147 208.5 Q 149.5 207 146 205.5 L 143.5 202 L 142 202.5 Q 144.8 200.8 140.5 199 L 139 198.5 L 139 196.5 L 138.5 195 L 137 195.5 Q 139.5 194 136 192.5 L 135.5 190 L 134 190.5 L 134 188.5 L 132.5 185 L 131 185.5 L 132 183.5 L 130 183.5 L 130 181.5 L 126.5 173 L 125 173.5 L 126 171.5 Q 120 162 117.5 149 L 116 149.5 L 117 146.5 L 115 141.5 L 113.5 131 L 112 131.5 Q 114.5 130 113 124.5 L 112 124.5 L 111.5 126 L 111 123.5 L 112 122.5 L 112 114 Q 109 115.3 110 111.5 L 111 110.5 L 111 95.5 L 110 91 L 112 91 Q 110.9 88.3 113.5 89 L 114.5 88 Z " /><path fill="rgb(212,235,237)" stroke="rgb(212,235,237)" stroke-width="1" opacity="0.9921568627450981" d="M 433.5 88 L 434 115.5 L 433 116.5 L 433 125.5 L 430 142.5 L 425.5 157 L 425 154.5 L 426 152.5 L 426 150.5 L 428 144.5 L 427.5 143 Q 430.9 143.9 429 138.5 L 432 124.5 L 431 122.5 L 433 112.5 L 433 96.5 L 433 94.5 L 431.5 92 L 427.5 91 L 427.5 92 L 429 92.5 L 417 95 L 416.5 99 L 414.5 98 L 415.5 101 L 411.5 102 L 409.5 101 L 407.5 102 L 405.5 102 L 403.5 101 L 400.5 104 L 399.5 103 L 397 103.5 L 399 104 Q 400.1 106.7 397.5 106 L 391 107.5 L 395 108.5 L 391.5 109 L 389.5 109 L 387.5 108 L 387 109.5 Q 388.3 112.3 389.5 110 Q 392.3 109.4 391 115.5 L 388 117 L 386.5 113 L 385 116 Q 381.7 114.9 383 119 L 380.5 119 Q 378.3 121.8 373 121.5 L 374.5 125 L 375.5 122 L 377.5 122 L 380 124.5 L 379.5 126 L 378 125.5 L 377.5 127 Q 376.2 124.8 375 127.5 L 375 142.5 L 378 143 L 378 150 L 375 150 L 375 158 L 382.5 158 L 383 162 L 389.5 162 L 391 161.5 L 391 171.5 L 394.5 175 L 407 175 L 407 167.5 L 410.5 162 L 411 164.5 Q 408.5 166 412 167.5 L 412 173.5 L 406 179.5 L 406 183.5 L 407 183.5 L 409 178 L 413 176.5 Q 412.3 174.3 414.5 175 L 416.5 174 L 418 174.5 L 416 169.5 L 418 164 L 423 162.5 L 422.5 160 L 421 159.5 L 423 159 L 423.5 156 L 425 159.5 L 423 165 L 421 165.5 L 422 167.5 L 411 190.5 L 392 216 L 390 216 L 390 218 Q 387.3 216.9 388 219.5 Q 376.6 232.6 360 239 Q 361.1 241.7 358.5 241 L 339.5 251 L 336.5 251 L 334.5 253 L 318.5 258 L 316.5 257 Q 315 260.5 313.5 258 Q 310.2 256.9 311 259.5 L 309.5 259 L 307 259 Q 308.1 261.7 305.5 261 L 301.5 260 Q 300 263.5 298.5 261 L 297 260.5 L 299 260 L 302 252 Q 305 253.3 304 249.5 L 305 247 Q 308 248.3 307 244.5 L 310 237.5 L 313 234.5 L 313 231.5 L 323 204.5 L 323 199.5 L 325 195.5 L 325 190.5 L 327 184.5 L 330 151.5 L 342.5 139 L 358 126.5 Q 357.3 124.3 359.5 125 Q 377.5 110 400.5 100 L 402 100.5 L 402.5 99 L 404.5 100 L 404.5 98 L 433.5 88 Z M 411 97 L 411 98 L 413 98 L 411 97 Z M 412 99 L 413 100 L 414 101 Q 415 98 412 99 Z M 394 105 L 394 106 L 396 106 L 394 105 Z M 373 122 L 371 123 L 369 123 L 367 126 L 370 125 L 371 127 L 373 126 L 373 124 L 373 122 Z M 366 124 L 364 127 L 366 126 L 366 124 Z M 408 182 Q 407 185 410 184 Q 411 181 408 182 Z M 403 192 L 402 195 L 403 195 L 403 192 Z " /><path fill="rgb(212,235,237)" stroke="rgb(212,235,237)" stroke-width="1" opacity="0.9921568627450981" d="M 277.5 95 L 278 108.5 L 277 108.5 L 277.5 95 Z " /><path fill="rgb(212,235,237)" stroke="rgb(212,235,237)" stroke-width="1" opacity="0.9921568627450981" d="M 403 103 L 405.5 104 L 407 103.5 Q 408.7 108.3 404.5 107 L 403 103 Z " /><path fill="rgb(212,235,237)" stroke="rgb(212,235,237)" stroke-width="1" opacity="0.9921568627450981" d="M 405.5 108 L 406.5 110 L 405.5 108 Z " /><path fill="rgb(212,235,237)" stroke="rgb(212,235,237)" stroke-width="1" opacity="0.9921568627450981" d="M 424 144 Q 427 143 426 146 Q 423 147 424 144 Z " /><path fill="rgb(212,235,237)" stroke="rgb(212,235,237)" stroke-width="1" opacity="0.9921568627450981" d="M 413.5 159 L 414 161 L 412 160.5 L 413.5 159 Z " /><path fill="rgb(212,235,237)" stroke="rgb(212,235,237)" stroke-width="1" opacity="0.9921568627450981" d="M 416.5 160 L 417 162.5 L 415 161.5 L 416.5 160 Z " /><path fill="rgb(212,235,237)" stroke="rgb(212,235,237)" stroke-width="1" opacity="0.9921568627450981" d="M 319.5 164 L 320 166.5 L 319.5 173 L 316 170.5 Q 320.3 172.7 319 180.5 L 318 180.5 L 317.5 175 L 313 190.5 L 314 192.5 L 312 191.5 L 309 183.5 L 309.5 182 L 307.5 183 L 308 181.5 L 306 178.5 L 308.5 180 L 311 177.5 Q 309.8 173.8 313.5 175 L 313.5 174 L 311.5 173 L 308 175.5 L 319.5 164 Z M 319 166 L 317 168 L 318 170 L 319 170 L 319 166 Z M 314 171 Q 312 174 315 173 L 314 171 Z " /><path fill="rgb(212,235,237)" stroke="rgb(212,235,237)" stroke-width="1" opacity="0.9921568627450981" d="M 317.5 183 L 318 187.5 L 317 187.5 L 317.5 183 Z " /><path fill="rgb(212,235,237)" stroke="rgb(212,235,237)" stroke-width="1" opacity="0.9921568627450981" d="M 315.5 189 Q 318 190 317 194.5 L 315.5 199 L 314 194.5 L 316 194.5 L 315.5 189 Z " /><path fill="rgb(212,235,237)" stroke="rgb(212,235,237)" stroke-width="1" opacity="0.9921568627450981" d="M 313.5 198 L 315 202.5 L 314 202.5 L 313.5 198 Z " /><path fill="rgb(212,235,237)" stroke="rgb(212,235,237)" stroke-width="1" opacity="0.9921568627450981" d="M 313.5 204 L 314 206.5 L 313 206.5 L 313.5 204 Z " /><path fill="rgb(212,235,237)" stroke="rgb(212,235,237)" stroke-width="1" opacity="0.9921568627450981" d="M 311.5 211 L 312 214 Q 309.3 215.1 310 212.5 L 311.5 211 Z " /><path fill="rgb(212,235,237)" stroke="rgb(212,235,237)" stroke-width="1" opacity="0.9921568627450981" d="M 310.5 215 L 311 216.5 L 307.5 225 L 307 223.5 L 310.5 215 Z " /><path fill="rgb(212,235,237)" stroke="rgb(212,235,237)" stroke-width="1" opacity="0.9921568627450981" d="M 304.5 231 L 304 232.5 L 303.5 234 L 303 232.5 L 304.5 231 Z " /><path fill="rgb(212,235,237)" stroke="rgb(212,235,237)" stroke-width="1" opacity="0.9921568627450981" d="M 272.5 234 L 274 236.5 L 273.5 239 Q 269.8 239.8 269 237.5 L 271 236.5 L 270.5 235 L 272.5 234 Z " /><path fill="rgb(212,235,237)" stroke="rgb(212,235,237)" stroke-width="1" opacity="0.9921568627450981" d="M 302.5 235 L 302 236.5 L 301.5 238 L 301 236.5 L 302.5 235 Z " /><path fill="rgb(212,235,237)" stroke="rgb(212,235,237)" stroke-width="1" opacity="0.9921568627450981" d="M 269.5 240 Q 275.3 239.3 276 243.5 L 278 249.5 L 280.5 252 L 284 253 Q 282.9 255.7 285.5 255 L 285.5 256 L 284 256.5 L 285 259 Q 282.3 257.9 283 260.5 L 285 261.5 L 286 258 L 290 255.5 L 292.5 252 L 291 254.5 Q 284.5 265.5 274.5 273 L 268 267.5 L 268.5 266 L 264 262.5 L 265 258 L 263 257.5 L 265 257 Q 266.1 254.3 263.5 255 Q 262.3 257.3 261 254.5 L 265 248.5 L 267 241 L 269.5 240 Z M 279 255 L 282 258 Q 284 259 283 256 L 279 255 Z " /><path fill="rgb(212,235,237)" stroke="rgb(212,235,237)" stroke-width="1" opacity="0.9921568627450981" d="M 294.5 249 L 293.5 251 L 294.5 249 Z " /><path fill="rgb(212,235,237)" stroke="rgb(212,235,237)" stroke-width="1" opacity="0.9921568627450981" d="M 259.5 255 L 260.5 257 L 259.5 255 Z " /><path fill="rgb(212,235,237)" stroke="rgb(212,235,237)" stroke-width="1" opacity="0.9921568627450981" d="M 261.5 258 L 262.5 260 L 261.5 258 Z " /><path fill="rgb(212,235,237)" stroke="rgb(212,235,237)" stroke-width="1" opacity="0.9921568627450981" d="M 131.5 307 L 133 307.5 L 128.5 309 L 128.5 308 L 131.5 307 Z " /><path fill="rgb(212,235,237)" stroke="rgb(212,235,237)" stroke-width="1" opacity="0.9921568627450981" d="M 43.5 308 L 45 308.5 L 41.5 311 L 43.5 308 Z " /><path fill="rgb(212,235,237)" stroke="rgb(212,235,237)" stroke-width="1" opacity="0.9921568627450981" d="M 59.5 308 Q 63.8 307.3 64.5 310 L 66 309.5 Q 64.3 312.8 62.5 309 Q 58.5 309.8 59.5 308 Z " /><path fill="rgb(212,235,237)" stroke="rgb(212,235,237)" stroke-width="1" opacity="0.9921568627450981" d="M 149.5 308 L 152 308.5 L 149.5 309 L 149.5 308 Z " /><path fill="rgb(212,235,237)" stroke="rgb(212,235,237)" stroke-width="1" opacity="0.9921568627450981" d="M 77.5 309 L 78 312.5 L 77 313.5 L 76.5 329 L 74 320.5 L 68 312 L 66 311.5 L 69.5 311 L 73.5 312 L 77.5 309 Z " /><path fill="rgb(212,235,237)" stroke="rgb(212,235,237)" stroke-width="1" opacity="0.9921568627450981" d="M 153.5 309 L 154.5 311 L 153.5 309 Z " /><path fill="rgb(212,235,237)" stroke="rgb(212,235,237)" stroke-width="1" opacity="0.9921568627450981" d="M 196.5 309 L 197.5 311 Q 194.7 311.7 196.5 309 Z " /><path fill="rgb(212,235,237)" stroke="rgb(212,235,237)" stroke-width="1" opacity="0.9921568627450981" d="M 273.5 309 L 276 309.5 Q 273.9 312.8 273.5 309 Z " /><path fill="rgb(212,235,237)" stroke="rgb(212,235,237)" stroke-width="1" opacity="0.9921568627450981" d="M 362.5 309 L 365 310.5 L 362 311 L 362.5 309 Z " /><path fill="rgb(212,235,237)" stroke="rgb(212,235,237)" stroke-width="1" opacity="0.9921568627450981" d="M 123.5 310 L 123 311.5 L 118.5 318 L 117 318.5 L 117 320.5 L 114 328.5 L 111 343.5 L 111 366.5 L 117 391 L 121 393.5 L 123.5 397 L 125 397.5 Q 123.7 400.2 122.5 398 L 119.5 398 L 110 391.5 L 108.5 389 L 105 386.5 L 96 369.5 L 94 358.5 L 94 349.5 Q 96.3 348.3 95 343.5 L 97 341.5 L 96 339.5 L 99 331.5 L 108.5 320 L 111 318.5 Q 110.3 316.3 112.5 317 L 123.5 310 Z M 98 358 L 97 364 L 98 364 L 98 358 Z M 99 366 L 98 369 L 99 369 L 99 366 Z M 100 371 L 99 374 L 100 374 L 100 371 Z M 116 392 Q 115 395 118 394 Q 119 391 116 392 Z " /><path fill="rgb(212,235,237)" stroke="rgb(212,235,237)" stroke-width="1" opacity="0.9921568627450981" d="M 157.5 310 Q 159.6 313.9 165 313 Q 163.8 316 167.5 315 L 175 321.5 L 176.5 325 L 178 324.5 L 180 327.5 L 179 328.5 L 182 331.5 L 185 339.5 L 187 353.5 L 186 354.5 L 185 369.5 L 182 374.5 L 182 376.5 L 179 380.5 Q 181.5 382 178 383.5 L 169.5 393 L 158.5 399 L 156 397.5 L 162 392.5 L 168 381.5 L 170 353.5 L 169 352.5 L 168 331.5 Q 164.5 328 164 321.5 L 156 311.5 L 157.5 310 Z " /><path fill="rgb(212,235,237)" stroke="rgb(212,235,237)" stroke-width="1" opacity="0.9921568627450981" d="M 202.5 310 L 219.5 310 L 220.5 311 L 223.5 310 L 223.5 311 L 219 312 L 219 333.5 L 218 334.5 L 218 377.5 L 219 379.5 L 218 380.5 L 218 396.5 L 220 399.5 L 218.5 400 L 217.5 399 L 203.5 399 L 202 399.5 L 203 397.5 L 203 313.5 Q 199.3 311.8 202.5 310 Z M 206 365 L 205 378 L 206 378 L 206 365 Z " /><path fill="rgb(212,235,237)" stroke="rgb(212,235,237)" stroke-width="1" opacity="0.9921568627450981" d="M 279.5 310 L 298 310.5 L 296 312.5 L 296 323.5 L 297 324.5 L 297 397.5 L 298.5 399 L 301 399.5 L 296.5 400 L 295.5 399 L 281.5 399 L 279 400 Q 278.3 396.9 281 397.5 L 281 312.5 L 279.5 310 Z M 295 356 L 294 372 L 295 372 L 295 356 Z M 287 391 L 286 394 L 287 394 L 287 391 Z M 295 391 L 293 393 L 294 396 L 295 396 L 295 391 Z M 288 394 L 290 396 Q 291 393 288 394 Z " /><path fill="rgb(212,235,237)" stroke="rgb(212,235,237)" stroke-width="1" opacity="0.9921568627450981" d="M 368 310 L 387 310.5 Q 383.5 312 386 313.5 L 386 350.5 L 387 351.5 L 386 352.5 L 386 399 L 370.5 399 L 369.5 400 L 368.5 398 L 370 397.5 L 370 314.5 L 368 310 Z M 382 391 L 382 393 L 381 395 L 383 396 Q 385 390 382 391 Z M 374 394 L 376 397 L 378 397 L 374 394 Z " /><path fill="rgb(212,235,237)" stroke="rgb(212,235,237)" stroke-width="1" opacity="0.9921568627450981" d="M 401.5 310 L 406 310.5 L 401.5 311 L 401.5 310 Z " /><path fill="rgb(212,235,237)" stroke="rgb(212,235,237)" stroke-width="1" opacity="0.9921568627450981" d="M 410 310 L 427.5 310 L 429 311.5 Q 430.1 322.6 428 329 Q 425.3 330.1 426 327.5 L 416.5 315 L 411.5 311 L 410 311.5 L 410 310 Z M 417 312 L 417 313 Q 421 311 420 315 Q 418 316 421 317 L 421 316 L 421 314 L 427 313 L 417 312 Z M 426 320 L 425 322 Q 423 323 426 324 L 426 323 Q 428 321 426 320 Z " /><path fill="rgb(212,235,237)" stroke="rgb(212,235,237)" stroke-width="1" opacity="0.9921568627450981" d="M 444.5 310 L 462.5 310 L 466 313.5 L 467.5 316 Q 469.8 315.3 469 317.5 L 487 339 L 491 341.5 L 492 345 L 498 349.5 L 500.5 354 L 504 356.5 L 510 363.5 L 510 366 L 513 367.5 L 514.5 371 L 517 372.5 L 521.5 379 Q 524.1 379.8 523 376.5 L 524 376.5 L 524 395.5 L 523 396.5 Q 525.8 398.2 521.5 400 Q 516.8 400.8 516 397.5 L 496 373.5 L 496 371 Q 493.3 372.1 494 369.5 L 490 366.5 L 480 354.5 L 480.5 353 L 475 348.5 L 472.5 344 L 470 342.5 L 464.5 335 Q 462.3 335.8 463 333.5 L 455.5 325 Q 452.9 325.8 454 322.5 L 445 312.5 L 444.5 310 Z M 457 323 L 458 325 Q 459 322 457 323 Z M 462 326 L 463 328 Q 464 325 462 326 Z M 495 368 L 496 370 Q 497 367 495 368 Z M 501 373 L 501 375 L 503 374 L 501 373 Z M 522 384 L 521 397 L 522 397 L 522 384 Z " /><path fill="rgb(212,235,237)" stroke="rgb(212,235,237)" stroke-width="1" opacity="0.9921568627450981" d="M 516 310 L 524.5 311 L 529.5 310 L 532 310.5 L 525 315.5 Q 525.8 317.8 523.5 317 L 522 317.5 L 518 312.5 L 518.5 311 L 516.5 312 L 516 310 Z " /><path fill="rgb(212,235,237)" stroke="rgb(212,235,237)" stroke-width="1" opacity="0.9921568627450981" d="M 323.5 311 Q 328.8 310.2 330.5 313 L 332.5 313 L 343 319.5 L 347 328.5 L 347 338.5 L 344 346 L 341 347.5 L 339.5 350 Q 338.3 347.8 337 350.5 L 336.5 352 Q 335 349.5 333.5 353 L 329.5 354 L 327.5 353 L 323.5 354 L 319 352.5 L 321.5 352 L 328 345.5 L 330 341.5 L 331 330.5 L 329 321.5 L 322 312.5 L 323.5 311 Z " /><path fill="rgb(212,235,237)" stroke="rgb(212,235,237)" stroke-width="1" opacity="0.9921568627450981" d="M 35.5 313 L 38 313.5 L 35 316.5 L 34 326.5 Q 36.1 333.9 41.5 338 Q 50.8 343.7 63.5 346 L 80 356.5 L 84 364.5 Q 81.5 366 85 367.5 L 86 375.5 L 85 376.5 L 85 383 L 83 383.5 L 83 385.5 L 81 390 Q 78.3 388.9 79 391.5 L 76.5 395 L 69.5 399 L 68.5 397 Q 70.8 397.8 70 395.5 Q 77.3 391.3 75 377.5 L 69 368 L 65 366.5 L 64.5 365 L 62.5 365 L 53.5 362 L 51.5 360 L 49.5 360 L 44 359 L 43.5 357 L 42 357.5 L 41.5 356 L 39.5 356 L 36 355 L 33.5 351 L 32 351.5 Q 23.7 344.8 26 327.5 L 29 320 L 31 319.5 L 30 318.5 L 35.5 313 Z M 82 364 L 81 368 L 82 368 L 82 364 Z " /><path fill="rgb(212,235,237)" stroke="rgb(212,235,237)" stroke-width="1" opacity="0.9921568627450981" d="M 411 344 L 413 344.5 L 413 362.5 L 414 366.5 L 413 366.5 L 413 363.5 L 406.5 355 L 401 353 Q 399.8 350 403.5 351 L 411 345.5 L 411 344 Z " /><path fill="rgb(212,235,237)" stroke="rgb(212,235,237)" stroke-width="1" opacity="0.9921568627450981" d="M 397.5 351 L 400 351.5 L 397.5 352 L 397.5 351 Z " /><path fill="rgb(212,235,237)" stroke="rgb(212,235,237)" stroke-width="1" opacity="0.9921568627450981" d="M 303.5 354 L 304.5 355 L 314.5 355 L 325 362.5 L 323 365.5 L 324.5 368 L 325.5 364 Q 334.2 372.5 339 384 Q 341.7 382.9 341 385.5 L 350 400 L 333.5 400 L 331 396.5 L 330 393 Q 327 394.3 328 390.5 L 314 371.5 L 308 360 Q 305 361.3 306 357.5 L 303.5 354 Z M 308 357 L 310 361 L 310 360 L 313 361 L 313 360 Q 312 356 308 357 Z M 314 357 L 315 359 Q 316 356 314 357 Z M 322 362 Q 320 365 323 364 L 322 362 Z M 326 368 L 327 370 Q 328 367 326 368 Z M 342 392 L 341 394 L 343 395 L 342 392 Z M 335 395 Q 334 398 337 397 Q 338 394 335 395 Z " /><path fill="rgb(212,235,237)" stroke="rgb(212,235,237)" stroke-width="1" opacity="0.9921568627450981" d="M 28.5 379 L 39 397 L 35.5 396 L 29.5 401 L 28 399.5 L 28.5 379 Z " /><path fill="rgb(212,235,237)" stroke="rgb(212,235,237)" stroke-width="1" opacity="0.9921568627450981" d="M 262 379 L 264 379.5 L 264 398.5 Q 262.3 401.8 255.5 400 L 253.5 399 L 251.5 400 L 249.5 399 L 245.5 400 L 244.5 398 L 254 392 L 259.5 384 Q 261.8 384.8 261 382.5 L 262 379 Z " /><path fill="rgb(212,235,237)" stroke="rgb(212,235,237)" stroke-width="1" opacity="0.9921568627450981" d="M 430.5 381 L 433 382 L 433 398.5 L 431.5 399 L 430.5 400 L 413 400 L 414.5 397 L 420 395 Q 418.9 392.3 421.5 393 L 430.5 381 Z " /><path fill="rgb(212,235,237)" stroke="rgb(212,235,237)" stroke-width="1" opacity="0.9921568627450981" d="M 453.5 392 Q 455.8 391.3 455 393.5 L 460 398.5 L 458.5 400 Q 453.8 401.3 452.5 399 L 449.5 400 L 447 398.5 L 452 394.5 L 453.5 392 Z " /><path fill="rgb(212,235,237)" stroke="rgb(212,235,237)" stroke-width="1" opacity="0.9921568627450981" d="M 63.5 400 L 62.5 402 L 59 401.5 L 63.5 400 Z " /><path fill="rgb(169,191,195)" stroke="rgb(169,191,195)" stroke-width="1" opacity="0.9254901960784314" d="M 272.5 12 L 273.5 14 L 272.5 12 Z " /><path fill="rgb(169,191,195)" stroke="rgb(169,191,195)" stroke-width="1" opacity="0.9254901960784314" d="M 268.5 15 L 267 17.5 Q 267.8 19.8 265.5 19 L 268.5 15 Z " /><path fill="rgb(169,191,195)" stroke="rgb(169,191,195)" stroke-width="1" opacity="0.9254901960784314" d="M 264.5 20 L 258.5 27 L 264.5 20 Z " /><path fill="rgb(169,191,195)" stroke="rgb(169,191,195)" stroke-width="1" opacity="0.9254901960784314" d="M 257.5 28 L 257 29.5 L 245.5 47 L 247 44.5 Q 250.4 34.4 257.5 28 Z " /><path fill="rgb(169,191,195)" stroke="rgb(169,191,195)" stroke-width="1" opacity="0.9254901960784314" d="M 244.5 48 L 245 49.5 L 242.5 53 L 243 51.5 L 244.5 48 Z " /><path fill="rgb(169,191,195)" stroke="rgb(169,191,195)" stroke-width="1" opacity="0.9254901960784314" d="M 241.5 54 L 242 55.5 L 240.5 58 L 240 56.5 L 241.5 54 Z " /><path fill="rgb(169,191,195)" stroke="rgb(169,191,195)" stroke-width="1" opacity="0.9254901960784314" d="M 239.5 59 L 240 60.5 L 238.5 63 L 238 61.5 L 239.5 59 Z " /><path fill="rgb(169,191,195)" stroke="rgb(169,191,195)" stroke-width="1" opacity="0.9254901960784314" d="M 237.5 64 L 238 65.5 L 236.5 68 L 236 66.5 L 237.5 64 Z " /><path fill="rgb(169,191,195)" stroke="rgb(169,191,195)" stroke-width="1" opacity="0.9254901960784314" d="M 111 88 L 114 88.5 L 112 89 L 111.5 91 L 111 88 Z " /><path fill="rgb(169,191,195)" stroke="rgb(169,191,195)" stroke-width="1" opacity="0.9254901960784314" d="M 115.5 89 L 130 93.5 L 127.5 94 L 115.5 90 L 115.5 89 Z " /><path fill="rgb(169,191,195)" stroke="rgb(169,191,195)" stroke-width="1" opacity="0.9254901960784314" d="M 131.5 94 L 137 96.5 L 135.5 97 L 131.5 95 L 131.5 94 Z " /><path fill="rgb(169,191,195)" stroke="rgb(169,191,195)" stroke-width="1" opacity="0.9254901960784314" d="M 110.5 95 L 111 110.5 L 110 110.5 L 110.5 95 Z " /><path fill="rgb(169,191,195)" stroke="rgb(169,191,195)" stroke-width="1" opacity="0.9254901960784314" d="M 140.5 98 L 143 99.5 L 141.5 100 L 140.5 98 Z " /><path fill="rgb(169,191,195)" stroke="rgb(169,191,195)" stroke-width="1" opacity="0.9254901960784314" d="M 111.5 114 L 112 122.5 L 111 122.5 L 111.5 114 Z " /><path fill="rgb(169,191,195)" stroke="rgb(169,191,195)" stroke-width="1" opacity="0.9254901960784314" d="M 172.5 116 L 174.5 119 L 172.5 116 Z " /><path fill="rgb(169,191,195)" stroke="rgb(169,191,195)" stroke-width="1" opacity="0.9254901960784314" d="M 176.5 119 L 178.5 122 L 176.5 119 Z " /><path fill="rgb(169,191,195)" stroke="rgb(169,191,195)" stroke-width="1" opacity="0.9254901960784314" d="M 180.5 122 L 187 127.5 L 186.5 129 L 186 127 L 184.5 127 L 180.5 122 Z " /><path fill="rgb(169,191,195)" stroke="rgb(169,191,195)" stroke-width="1" opacity="0.9254901960784314" d="M 112.5 124 L 115 141.5 L 121 161.5 L 136 191.5 L 135 191.5 L 120 161.5 L 114 141.5 L 112 130.5 L 112.5 124 Z " /><path fill="rgb(169,191,195)" stroke="rgb(169,191,195)" stroke-width="1" opacity="0.9254901960784314" d="M 192.5 132 L 196.5 137 L 192.5 132 Z " /><path fill="rgb(169,191,195)" stroke="rgb(169,191,195)" stroke-width="1" opacity="0.9254901960784314" d="M 198.5 137 L 218 156.5 L 221 161.5 L 220 161.5 L 217 156 Q 214.3 157.1 215 154.5 L 198.5 137 Z " /><path fill="rgb(169,191,195)" stroke="rgb(169,191,195)" stroke-width="1" opacity="0.9254901960784314" d="M 221.5 168 L 222 172.5 L 221 172.5 L 221.5 168 Z " /><path fill="rgb(169,191,195)" stroke="rgb(169,191,195)" stroke-width="1" opacity="0.9254901960784314" d="M 222.5 176 L 223 179.5 L 222 179.5 L 222.5 176 Z " /><path fill="rgb(169,191,195)" stroke="rgb(169,191,195)" stroke-width="1" opacity="0.9254901960784314" d="M 224.5 189 L 225 191.5 L 224 191.5 L 224.5 189 Z " /><path fill="rgb(169,191,195)" stroke="rgb(169,191,195)" stroke-width="1" opacity="0.9254901960784314" d="M 136.5 193 L 140 197.5 L 138 196.5 L 136.5 193 Z " /><path fill="rgb(169,191,195)" stroke="rgb(169,191,195)" stroke-width="1" opacity="0.9254901960784314" d="M 225.5 194 L 226 196.5 L 225 196.5 L 225.5 194 Z " /><path fill="rgb(169,191,195)" stroke="rgb(169,191,195)" stroke-width="1" opacity="0.9254901960784314" d="M 226.5 198 L 227 200.5 L 226 200.5 L 226.5 198 Z " /><path fill="rgb(169,191,195)" stroke="rgb(169,191,195)" stroke-width="1" opacity="0.9254901960784314" d="M 140.5 199 L 151 212 Q 153.7 210.9 153 213.5 L 161 220.5 Q 160.3 222.8 162.5 222 L 170.5 229 L 172 228.5 L 171 229.5 L 173.5 233 L 148 209.5 L 146 206.5 L 140.5 199 Z " /><path fill="rgb(169,191,195)" stroke="rgb(169,191,195)" stroke-width="1" opacity="0.9254901960784314" d="M 227.5 202 L 228 204.5 L 227 204.5 L 227.5 202 Z " /><path fill="rgb(169,191,195)" stroke="rgb(169,191,195)" stroke-width="1" opacity="0.9254901960784314" d="M 175.5 233 L 191.5 243 L 202.5 248 L 232 257.5 L 229.5 258 L 204.5 250 L 193.5 245 L 176.5 235 L 175.5 233 Z " /><path fill="rgb(169,191,195)" stroke="rgb(169,191,195)" stroke-width="1" opacity="0.9254901960784314" d="M 248.5 253 L 249.5 255 L 248.5 253 Z " /><path fill="rgb(169,191,195)" stroke="rgb(169,191,195)" stroke-width="1" opacity="0.9254901960784314" d="M 233.5 258 L 237 258.5 L 233.5 259 L 233.5 258 Z " /><path fill="rgb(169,191,195)" stroke="rgb(169,191,195)" stroke-width="1" opacity="0.9254901960784314" d="M 311.5 258 L 314 258.5 L 311.5 259 L 311.5 258 Z " /><path fill="rgb(169,191,195)" stroke="rgb(169,191,195)" stroke-width="1" opacity="0.9254901960784314" d="M 238.5 259 L 242 259.5 L 238.5 260 L 238.5 259 Z " /><path fill="rgb(169,191,195)" stroke="rgb(169,191,195)" stroke-width="1" opacity="0.9254901960784314" d="M 307.5 259 L 310 259.5 L 307.5 260 L 307.5 259 Z " /><path fill="rgb(169,191,195)" stroke="rgb(169,191,195)" stroke-width="1" opacity="0.9254901960784314" d="M 244.5 260 Q 248.3 259.3 249 261.5 L 247.5 261 Q 243.5 261.8 244.5 260 Z " /><path fill="rgb(169,191,195)" stroke="rgb(169,191,195)" stroke-width="1" opacity="0.9254901960784314" d="M 250.5 260 L 256 261.5 L 251.5 262 L 250.5 260 Z " /><path fill="rgb(169,191,195)" stroke="rgb(169,191,195)" stroke-width="1" opacity="0.9254901960784314" d="M 301.5 260 L 305 260.5 L 300.5 262 L 301.5 260 Z " /><path fill="rgb(169,191,195)" stroke="rgb(169,191,195)" stroke-width="1" opacity="0.9254901960784314" d="M 296.5 261 L 299 261.5 L 296.5 262 L 296.5 261 Z " /><path fill="rgb(169,191,195)" stroke="rgb(169,191,195)" stroke-width="1" opacity="0.9254901960784314" d="M 41.5 309 L 39.5 312 L 39 310 L 41.5 309 Z " /><path fill="rgb(169,191,195)" stroke="rgb(169,191,195)" stroke-width="1" opacity="0.9254901960784314" d="M 64.5 309 L 67 310.5 L 65.5 311 L 64.5 309 Z " /><path fill="rgb(169,191,195)" stroke="rgb(169,191,195)" stroke-width="1" opacity="0.9254901960784314" d="M 125.5 309 L 128 309.5 L 123.5 312 L 125.5 309 Z " /><path fill="rgb(169,191,195)" stroke="rgb(169,191,195)" stroke-width="1" opacity="0.9254901960784314" d="M 154.5 309 L 158 311.5 L 156.5 311 L 154.5 309 Z " /><path fill="rgb(169,191,195)" stroke="rgb(169,191,195)" stroke-width="1" opacity="0.9254901960784314" d="M 198.5 310 L 202 310.5 L 198.5 311 L 198.5 310 Z " /><path fill="rgb(169,191,195)" stroke="rgb(169,191,195)" stroke-width="1" opacity="0.9254901960784314" d="M 275.5 310 L 279 310.5 L 275.5 311 L 275.5 310 Z " /><path fill="rgb(169,191,195)" stroke="rgb(169,191,195)" stroke-width="1" opacity="0.9254901960784314" d="M 317.5 310 L 323 311.5 L 320.5 312 L 317.5 311 L 317.5 310 Z " /><path fill="rgb(169,191,195)" stroke="rgb(169,191,195)" stroke-width="1" opacity="0.9254901960784314" d="M 365.5 310 L 368 310.5 L 365.5 311 L 365.5 310 Z " /><path fill="rgb(169,191,195)" stroke="rgb(169,191,195)" stroke-width="1" opacity="0.9254901960784314" d="M 406.5 310 L 410 310.5 L 406.5 311 L 406.5 310 Z " /><path fill="rgb(169,191,195)" stroke="rgb(169,191,195)" stroke-width="1" opacity="0.9254901960784314" d="M 442.5 310 L 445 311.5 L 443.5 312 L 442.5 310 Z " /><path fill="rgb(169,191,195)" stroke="rgb(169,191,195)" stroke-width="1" opacity="0.9254901960784314" d="M 523.5 317 L 524 322.5 L 523 322.5 L 523.5 317 Z " /><path fill="rgb(169,191,195)" stroke="rgb(169,191,195)" stroke-width="1" opacity="0.9254901960784314" d="M 110.5 318 L 109.5 320 L 110.5 318 Z " /><path fill="rgb(169,191,195)" stroke="rgb(169,191,195)" stroke-width="1" opacity="0.9254901960784314" d="M 175.5 322 L 177 324.5 L 176 324.5 L 175.5 322 Z " /><path fill="rgb(169,191,195)" stroke="rgb(169,191,195)" stroke-width="1" opacity="0.9254901960784314" d="M 464.5 335 L 466.5 338 L 464.5 335 Z " /><path fill="rgb(169,191,195)" stroke="rgb(169,191,195)" stroke-width="1" opacity="0.9254901960784314" d="M 413.5 340 L 414 341.5 L 412.5 344 L 412 342.5 L 413.5 340 Z " /><path fill="rgb(169,191,195)" stroke="rgb(169,191,195)" stroke-width="1" opacity="0.9254901960784314" d="M 472.5 344 L 473.5 346 L 472.5 344 Z " /><path fill="rgb(169,191,195)" stroke="rgb(169,191,195)" stroke-width="1" opacity="0.9254901960784314" d="M 342.5 346 L 341.5 348 L 342.5 346 Z " /><path fill="rgb(169,191,195)" stroke="rgb(169,191,195)" stroke-width="1" opacity="0.9254901960784314" d="M 338.5 349 L 337.5 351 L 338.5 349 Z " /><path fill="rgb(169,191,195)" stroke="rgb(169,191,195)" stroke-width="1" opacity="0.9254901960784314" d="M 33.5 351 L 35.5 354 L 33.5 351 Z " /><path fill="rgb(169,191,195)" stroke="rgb(169,191,195)" stroke-width="1" opacity="0.9254901960784314" d="M 499.5 352 L 500.5 354 L 499.5 352 Z " /><path fill="rgb(169,191,195)" stroke="rgb(169,191,195)" stroke-width="1" opacity="0.9254901960784314" d="M 318.5 353 L 323 353.5 L 318.5 354 L 318.5 353 Z " /><path fill="rgb(169,191,195)" stroke="rgb(169,191,195)" stroke-width="1" opacity="0.9254901960784314" d="M 323.5 362 L 324.5 364 L 323.5 362 Z " /><path fill="rgb(169,191,195)" stroke="rgb(169,191,195)" stroke-width="1" opacity="0.9254901960784314" d="M 412.5 363 L 413 365.5 L 412 365.5 L 412.5 363 Z " /><path fill="rgb(169,191,195)" stroke="rgb(169,191,195)" stroke-width="1" opacity="0.9254901960784314" d="M 492.5 368 L 493.5 370 L 492.5 368 Z " /><path fill="rgb(169,191,195)" stroke="rgb(169,191,195)" stroke-width="1" opacity="0.9254901960784314" d="M 513.5 369 L 514.5 371 L 513.5 369 Z " /><path fill="rgb(169,191,195)" stroke="rgb(169,191,195)" stroke-width="1" opacity="0.9254901960784314" d="M 263 377 L 265 377.5 L 263 378.5 L 263 377 Z " /><path fill="rgb(169,191,195)" stroke="rgb(169,191,195)" stroke-width="1" opacity="0.9254901960784314" d="M 432.5 377 L 433 378.5 L 431.5 382 L 431 378.5 L 432.5 377 Z " /><path fill="rgb(169,191,195)" stroke="rgb(169,191,195)" stroke-width="1" opacity="0.9254901960784314" d="M 108.5 389 L 109.5 391 L 108.5 389 Z " /><path fill="rgb(169,191,195)" stroke="rgb(169,191,195)" stroke-width="1" opacity="0.9254901960784314" d="M 39.5 396 L 40.5 398 L 39.5 396 Z " /><path fill="rgb(169,191,195)" stroke="rgb(169,191,195)" stroke-width="1" opacity="0.9254901960784314" d="M 42.5 398 L 46 399.5 L 44.5 400 L 42.5 398 Z " /><path fill="rgb(169,191,195)" stroke="rgb(169,191,195)" stroke-width="1" opacity="0.9254901960784314" d="M 67.5 398 L 69 398.5 L 64.5 401 L 65.5 399 L 67.5 398 Z " /><path fill="rgb(169,191,195)" stroke="rgb(169,191,195)" stroke-width="1" opacity="0.9254901960784314" d="M 124.5 398 L 130 400.5 L 128.5 401 Q 124.5 400.5 124.5 398 Z " /><path fill="rgb(169,191,195)" stroke="rgb(169,191,195)" stroke-width="1" opacity="0.9254901960784314" d="M 155.5 398 L 158 398.5 L 151.5 401 L 151.5 400 L 155.5 398 Z " /><path fill="rgb(169,191,195)" stroke="rgb(169,191,195)" stroke-width="1" opacity="0.9254901960784314" d="M 243.5 398 L 244.5 400 L 240.5 401 L 240 399 L 243.5 398 Z " /><path fill="rgb(169,191,195)" stroke="rgb(169,191,195)" stroke-width="1" opacity="0.9254901960784314" d="M 350.5 398 L 351.5 400 Q 348.7 400.7 350.5 398 Z " /><path fill="rgb(169,191,195)" stroke="rgb(169,191,195)" stroke-width="1" opacity="0.9254901960784314" d="M 412.5 398 L 413 400 L 409 399.5 L 412.5 398 Z " /><path fill="rgb(169,191,195)" stroke="rgb(169,191,195)" stroke-width="1" opacity="0.9254901960784314" d="M 460.5 398 L 463 399.5 L 459.5 400 L 460.5 398 Z " /><path fill="rgb(169,191,195)" stroke="rgb(169,191,195)" stroke-width="1" opacity="0.9254901960784314" d="M 523.5 398 L 524 400 L 522 399.5 L 523.5 398 Z " /><path fill="rgb(169,191,195)" stroke="rgb(169,191,195)" stroke-width="1" opacity="0.9254901960784314" d="M 276.5 399 L 279 399.5 L 276.5 400 L 276.5 399 Z " /><path fill="rgb(169,191,195)" stroke="rgb(169,191,195)" stroke-width="1" opacity="0.9254901960784314" d="M 365.5 399 L 369 399.5 L 365.5 400 L 365.5 399 Z " /><path fill="rgb(169,191,195)" stroke="rgb(169,191,195)" stroke-width="1" opacity="0.9254901960784314" d="M 446.5 399 L 449 399.5 Q 446.9 402.8 446.5 399 Z " /><path fill="rgb(236,247,248)" stroke="rgb(236,247,248)" stroke-width="1" opacity="0.8549019607843137" d="M 271.5 10 L 274 10 Q 272.8 13 276.5 12 L 284 18.5 L 283.5 20 L 290 25.5 L 289 27.5 Q 291 25.8 293 29.5 L 292 31.5 Q 294.5 29.7 297 34.5 L 296 36.5 L 299 37.5 L 298 39.5 L 301 40.5 L 300 42.5 L 302 42.5 L 301 44.5 L 304 45.5 L 303 47.5 L 305 47.5 L 304 49.5 L 306 49.5 L 305 51.5 L 307 51.5 L 306 53.5 L 308 53.5 L 307 55.5 L 309 55.5 L 308 57.5 L 310 57.5 L 309 59.5 L 311 59.5 L 310 61.5 L 312 61.5 L 311 64.5 L 313 64.5 L 312 66.5 L 314 66.5 L 313 69.5 L 315 69.5 L 314 72.5 L 316 72.5 L 315 76.5 L 316.5 79 L 318 78.5 L 317 82.5 L 319 82.5 L 318 87.5 L 320 87.5 L 319 92.5 L 320 98 L 322 98.5 L 321 104 L 323 104.5 Q 320.3 106.3 322 112.5 L 324 112.5 L 323 113.5 L 323 127.5 L 325 127.5 L 324 128.5 L 324 149 L 322 148.5 L 323 147.5 L 323 128.5 L 322 127.5 L 322 113.5 L 321 112.5 L 320 99.5 L 314.5 78 L 314 81.5 L 316 85.5 L 317 92.5 L 315 92.5 Q 314.3 94.8 316.5 94 L 318 95.5 Q 317 103.5 320 107.5 L 321 122.5 L 320 125.5 L 321 126.5 L 321 134.5 Q 318.5 136 320 141.5 L 318.5 143 L 317 142.5 L 317 134.5 Q 314.8 133.3 316 128.5 Q 318.3 127.3 315.5 126 L 313 127.5 L 313 134.5 L 310 135 L 310 141 L 314 141.5 L 311.5 143 L 310 142.5 Q 311.8 149.3 308.5 151 L 299.5 151 L 299 152.5 L 294 156 L 293.5 161 L 293 159 L 286 159 L 286 165.5 L 289 166.5 Q 287.5 173.5 290.5 173 L 294 174.5 L 292 175.5 Q 294 180 296 176.5 L 295 173.5 L 296 173.5 L 297.5 177 L 307 165.5 L 304 166.5 L 305 164 Q 302.3 165.1 303 162.5 L 302 160.5 L 303 160.5 Q 302.3 162.8 304.5 162 L 306 161.5 L 305 164 L 307.5 165 L 310 164 L 312 160.5 L 311.5 159 L 312.5 160 L 323 150.5 L 323.5 152 L 325 151.5 L 308.5 168 L 307 167.5 L 308 169.5 L 301.5 176 L 300 175.5 L 301 177.5 L 297.5 181 Q 296.3 178.8 295 181.5 L 296 183.5 L 294 183.5 L 295 185.5 Q 293 189.2 291 187.5 L 292 189.5 Q 290 193.2 288 191.5 L 289 193.5 L 286 194.5 L 287 196.5 L 285 196.5 L 286 198.5 L 283 199.5 L 284 201.5 L 281 202.5 L 280 207 L 278 207 L 278 211 L 276.5 211 L 274 212 L 274 210 Q 271.3 211.1 272 208.5 L 267 201.5 L 267 198 L 263 196.5 L 263.5 195 L 262 194.5 L 262.5 193 L 259 190.5 L 259.5 189 L 257 187.5 L 257 185.5 L 256.5 184 Q 255 186.5 253.5 183 L 252 184.5 L 252.5 186 Q 253.8 183.8 255 186.5 L 254 188.5 Q 256 186.8 258 190.5 L 266 203.5 L 265.5 205 L 267 205.5 L 266.5 207 L 268 207.5 L 267.5 209 L 269 209.5 L 268.5 211 Q 270.8 210.3 270 212.5 L 275.5 224 L 280 212.5 L 291.5 193 L 293 193.5 L 292 191.5 Q 294.5 186.7 297 188.5 L 296 186.5 L 299 185.5 L 298 183.5 Q 300 179.8 302 181.5 L 301 179.5 Q 303.5 174.7 306 176.5 L 305 174.5 L 319.5 160 L 320.5 161 L 322.5 160 L 322 161.5 L 323 164.5 L 321 164.5 L 321 173.5 L 322 174.5 L 320 174.5 Q 318.3 180.8 321 182.5 L 319 182.5 Q 317.5 188 320 189.5 L 318 189.5 Q 316.8 194.3 319 195.5 L 317 195.5 L 318 199.5 L 316 199.5 L 317 203.5 L 315 203.5 L 316 208.5 L 315 208.5 L 314.5 207 L 314 209.5 L 315 211.5 L 314 211.5 L 313.5 210 L 313 213.5 L 314 215.5 L 312 215.5 L 313 218.5 L 311 218.5 L 312 221.5 L 310 221.5 L 311 224.5 L 309.5 227 L 308 226.5 L 309 229.5 L 307 229.5 L 308 231.5 L 306 231.5 L 307 233.5 L 305 233.5 L 306 235.5 L 304 235.5 L 305 237.5 L 303 237.5 L 304 239.5 L 302 239.5 L 303 241.5 L 300 242.5 L 301 245.5 L 298 246.5 L 299 248.5 L 297 248.5 L 298 250.5 Q 296 254.2 294 252.5 L 295 254.5 L 292 255.5 L 293 257.5 Q 290.5 262.3 288 260.5 L 289 262.5 L 275.5 275 L 273.5 274 L 272.5 275 L 268.5 271 L 266 269.5 L 266.5 268 L 261 263.5 L 261.5 262 L 259 260.5 L 260 258.5 L 257 257.5 L 258 255.5 L 255 254.5 L 256 252.5 L 253 251.5 L 254 249.5 L 252 249.5 L 253 247.5 L 250 246.5 L 251 244.5 L 249 244.5 L 250 242.5 L 247 241.5 L 248 239.5 L 246 239.5 L 247 237.5 L 245 237.5 L 246 235.5 L 244 235.5 L 245 231 L 243 231.5 L 243.5 233 Q 240.8 231.7 243 230.5 L 242.5 229 L 241 229.5 L 242 225.5 L 241 225.5 L 240.5 227 L 239 224.5 L 240 222.5 L 238 222.5 L 239 219.5 L 237 219.5 L 235 215.5 L 236 210.5 L 234 210.5 Q 236.3 209.2 235 204.5 L 233 204.5 L 234 199.5 L 232 199.5 L 233 196.5 L 231 196.5 Q 233.3 195.3 232 190.5 L 230 190.5 L 231 185.5 L 229 185.5 L 230 184.5 L 230 176.5 L 228 176.5 L 229 175.5 L 229 163.5 L 227 163.5 L 228 161.5 L 227.5 160 L 229.5 161 L 230.5 160 L 236 165.5 L 235.5 167 L 238 165.5 L 231 158.5 L 232 157.5 L 231.5 156 Q 230.2 158.3 229 155.5 L 229.5 154 L 227.5 155 L 224 151.5 L 225 150.5 L 225.5 149 L 231 153 L 238.5 162 L 240 161.5 Q 237.3 163.3 241.5 165 L 245 162.5 L 243.5 165 L 242 165.5 Q 243.3 168.3 244.5 166 L 248.5 170 L 250 170.5 L 248.5 171 L 246 169.5 L 250.5 175 L 252 172.5 L 252 170.5 Q 252.8 168.3 250.5 169 L 250.5 168 L 252.5 169 L 254 168.5 L 252 171.5 L 254 174.5 L 252 178 Q 254.7 176.9 254 179.5 L 260 184 L 259 180.5 L 261 179.5 L 262 183.5 L 259 185.5 L 264.5 193 L 266 192.5 L 265 194.5 L 269 194.5 Q 269.8 196.8 267.5 196 L 268.5 198 L 270 197.5 L 269 200.5 L 273 202.5 L 272 205.5 L 275.5 211 L 284 195.5 L 282 194.5 L 281.5 196 L 281 194.5 L 282 192.5 L 280 188.5 L 282 181 Q 287.2 178.9 286 183.5 L 287 183.5 Q 286.3 180.9 289 182 L 289.5 184 L 290.5 182 L 291 183.5 L 290 185.5 L 293 183.5 L 295 180.5 L 293.5 178 L 290.5 180 L 286 179 L 287 175 L 279 174 L 279 144.5 L 278 143.5 L 277.5 126 L 276.5 134 L 276 126.5 L 277 125.5 L 277 110.5 L 276 109.5 L 276 63.5 L 278 52.5 L 276 47.5 L 276 45.5 L 276.5 40 L 277.5 42 L 278.5 39 L 280 39.5 L 282 34 Q 284.7 35.1 284 32.5 L 285 32.5 Q 284.3 34.8 286.5 34 L 286.5 32 Q 289.3 33.3 287 34.5 L 287.5 36 Q 289.7 31.7 292 33.5 L 290.5 31 L 289 31.5 L 290 29 Q 287.3 27.9 288 30.5 L 287 30.5 L 288 27.5 L 286.5 28 L 281 22.5 L 283 22.5 L 273.5 12 L 271.5 12 L 262 21.5 Q 240.3 46.8 230.5 84 L 229 80.5 L 231 80.5 L 230 76.5 L 232 76.5 L 231 73.5 L 233 73.5 L 232 70.5 L 234 70.5 L 233 67.5 L 235 67.5 L 234 64.5 L 235 64.5 L 235.5 66 L 236 63.5 L 235.5 62 L 237 62.5 L 236 60.5 L 238 60.5 L 237 57.5 L 239 57.5 L 238 55.5 L 240 55.5 L 239 53.5 L 241 53.5 L 240 51.5 L 242 51.5 L 243 48.5 L 241 48.5 L 244 47.5 L 243 45.5 L 246 44.5 L 245 41.5 L 248 40.5 L 247 38.5 L 249 38.5 L 248 36.5 L 251 35.5 L 250 33.5 L 253 32.5 L 252 30.5 L 255 29.5 L 254 27.5 L 257.5 24 Q 258.8 26.2 260 23.5 L 259 21.5 L 263.5 17 L 265 17.5 L 264 15.5 L 270 13 L 271.5 10 Z M 291 34 Q 288 35 290 37 L 289 36 L 288 38 L 287 36 L 284 44 L 287 42 Q 289 43 288 40 Q 291 41 293 38 L 297 41 L 295 37 L 293 34 L 291 34 Z M 298 41 L 296 44 L 298 43 L 299 46 Q 298 49 301 48 L 301 50 L 298 49 L 298 51 L 303 51 L 298 41 Z M 296 45 L 297 49 L 298 49 Q 299 44 296 45 Z M 295 46 L 294 49 L 295 49 L 295 46 Z M 297 49 L 295 52 L 297 51 L 297 49 Z M 302 53 L 303 55 Q 304 52 302 53 Z M 305 53 Q 302 58 306 57 L 305 53 Z M 308 62 Q 306 65 309 64 L 310 66 L 310 63 L 308 62 Z M 311 70 Q 309 73 313 74 L 313 71 L 311 70 Z M 278 73 L 277 86 L 278 86 L 278 73 Z M 314 74 L 312 76 L 314 77 L 314 74 Z M 278 87 L 277 93 L 278 93 L 278 87 Z M 278 95 L 277 109 L 278 109 L 278 95 Z M 320 166 L 319 170 L 318 169 L 316 170 L 320 173 L 320 166 Z M 241 168 L 239 171 L 241 170 L 240 172 L 242 172 Q 245 170 241 168 Z M 316 170 L 315 173 Q 312 174 313 172 L 311 173 L 314 175 L 311 175 L 311 178 L 308 182 Q 311 183 310 181 L 311 181 L 309 184 L 312 192 L 314 193 L 313 191 L 317 176 L 317 174 Q 319 175 318 181 L 319 181 L 319 175 L 316 170 Z M 244 171 L 242 173 L 244 173 L 244 171 Z M 248 176 L 247 178 Q 250 179 248 181 L 251 181 L 248 176 Z M 252 181 L 252 184 Q 255 183 252 181 Z M 318 183 L 317 188 L 318 188 L 318 183 Z M 289 184 L 287 187 L 289 186 L 289 184 Z M 290 186 L 288 189 L 290 188 L 290 186 Z M 316 189 L 316 195 L 317 195 Q 318 190 316 189 Z M 284 190 L 284 192 Q 286 195 287 192 L 284 190 Z M 284 192 L 283 194 L 285 195 L 284 192 Z M 316 195 L 315 199 L 316 199 L 316 195 Z M 315 200 L 314 203 L 315 203 L 315 200 Z M 314 204 L 313 207 L 314 207 L 314 204 Z M 312 211 L 310 213 Q 309 215 312 214 L 312 211 Z M 310 217 L 309 220 L 310 220 L 310 217 Z M 309 220 L 308 223 L 309 223 L 309 220 Z M 273 234 L 271 235 L 271 237 L 269 238 Q 270 240 274 239 L 274 237 L 273 234 Z M 270 240 L 267 241 L 263 253 Q 259 254 263 256 L 265 255 L 266 258 L 264 263 L 269 266 L 268 268 L 275 273 L 285 263 L 283 261 Q 282 258 285 259 L 284 257 L 286 256 L 286 255 Q 283 256 284 253 L 281 252 L 278 250 L 276 244 Q 275 239 270 240 Z M 291 257 L 289 260 L 292 258 L 291 257 Z M 286 258 L 285 261 L 286 262 L 288 259 L 286 258 Z " /><path fill="rgb(236,247,248)" stroke="rgb(236,247,248)" stroke-width="1" opacity="0.8549019607843137" d="M 278.5 26 L 279.5 28 Q 276.7 28.7 278.5 26 Z " /><path fill="rgb(236,247,248)" stroke="rgb(236,247,248)" stroke-width="1" opacity="0.8549019607843137" d="M 281.5 28 L 282.5 30 Q 279.7 30.7 281.5 28 Z " /><path fill="rgb(236,247,248)" stroke="rgb(236,247,248)" stroke-width="1" opacity="0.8549019607843137" d="M 276.5 35 L 277 37.5 L 276 37.5 L 276.5 35 Z " /><path fill="rgb(236,247,248)" stroke="rgb(236,247,248)" stroke-width="1" opacity="0.8549019607843137" d="M 229.5 85 L 230 88.5 L 226 108.5 L 224.5 148 L 224 121.5 L 223 120.5 L 225 120.5 L 226 100.5 L 225 98.5 L 227 98.5 L 228 89.5 L 227.5 88 L 229 88.5 L 229.5 85 Z " /><path fill="rgb(236,247,248)" stroke="rgb(236,247,248)" stroke-width="1" opacity="0.8549019607843137" d="M 109.5 86 L 113.5 87 L 115 86.5 L 111 88 L 110.5 91 L 109.5 86 Z " /><path fill="rgb(236,247,248)" stroke="rgb(236,247,248)" stroke-width="1" opacity="0.8549019607843137" d="M 432.5 86 L 434.5 87 L 436 86.5 L 435 87.5 L 435 116.5 L 434 117.5 L 434 126.5 L 434.5 128 L 433 127.5 Q 431.8 132.3 434 133.5 L 432 133.5 Q 430.7 138.3 433 139.5 L 431 139.5 L 432 144.5 L 430 144.5 L 431 148.5 L 429 148.5 L 430 151.5 L 428 151.5 L 429 155.5 L 427 155.5 L 428 159.5 L 427 159.5 L 426.5 158 L 426 160.5 L 426.5 162 L 425 161.5 L 426 164.5 L 424 164.5 L 423 168.5 L 423.5 170 L 422 169.5 L 423 172.5 L 421 172.5 L 422 174.5 L 420 174.5 L 421 177.5 L 418 178.5 L 419 180.5 L 417 180.5 L 418 182.5 L 416 182.5 L 417 184.5 L 415 184.5 L 416 186.5 L 414 186.5 L 415 188.5 L 412 189.5 L 413 191.5 L 411 191.5 L 412 193.5 L 409 194.5 L 410 196.5 L 407 197.5 L 408 199.5 Q 405.5 204.3 403 202.5 L 404 204.5 L 400 206.5 L 399 208.5 L 399.5 210 L 398.5 209 L 395 212.5 Q 396.1 215.8 393.5 215 L 385 223.5 L 385 225 Q 380.3 224.3 379 228.5 Q 379.8 231.1 376.5 230 L 373.5 235 L 371.5 234 L 370.5 237 L 368.5 236 L 367.5 239 L 365.5 238 L 365.5 240 L 363.5 239 L 363.5 241 L 361.5 240 L 360.5 243 L 358.5 242 L 358.5 244 L 356.5 243 L 356.5 245 L 354.5 244 L 353.5 247 L 351.5 246 L 351.5 248 L 349.5 247 L 349.5 249 L 347.5 248 L 347.5 250 L 345.5 249 L 345.5 251 L 342.5 250 L 342.5 251 L 344 251.5 L 342.5 252 L 340.5 251 L 340.5 253 L 337.5 252 L 337.5 254 L 335 252.5 Q 366.3 240.8 388 219.5 L 392 214.5 L 403 201.5 L 402.5 200 Q 403.8 202.3 405 199.5 L 412 187.5 L 411.5 186 L 413 186.5 L 412 184.5 L 415 183.5 L 422 166.5 L 421.5 165 Q 424.1 165.7 423 163 L 418 164 L 416 170.5 L 418 174.5 L 416.5 174 L 413 175 L 411.5 178 Q 407.8 176.8 409 180.5 L 408.5 182 Q 411.1 181.3 410 184 Q 407.3 182.9 408 185.5 L 406 186.5 L 407 184.5 L 406 179.5 L 412 173.5 L 412 167.5 Q 409.5 162.5 407 167.5 L 407 175 L 394.5 175 L 391 171.5 L 390.5 161 L 389.5 162 L 383 162 L 383 158 L 375 158 L 375 150 L 378 150 L 378 143 L 375 142.5 L 375 127.5 L 378 126.5 L 378.5 125 L 380 125.5 L 377.5 122 L 375 122.5 L 374.5 125 L 373.5 122 L 372 124.5 L 372.5 126 L 370.5 127 L 369.5 125 L 367 126 L 366.5 124 L 364.5 127 L 364 125.5 Q 367.1 123.8 365.5 122 L 367.5 124 L 370.5 123 L 373.5 121 L 377.5 121 L 383 119 L 383 116 Q 385.7 117.1 385 114.5 L 387 113.5 L 388 117 L 391 115.5 Q 392.3 109.4 389.5 110 Q 388.3 112.3 387 109.5 L 388.5 107 L 388.5 109 L 391.5 107 Q 396.9 107.6 399 106 Q 400.1 103.3 397.5 104 L 397.5 103 L 400.5 104 L 403.5 101 L 404.5 102 L 406 101.5 L 402.5 99 L 401.5 101 L 399.5 100 L 381 110.5 L 383 111.5 L 381.5 112 L 379.5 111 L 378.5 113 L 380 113.5 L 378.5 114 L 376.5 113 L 371 116.5 L 371.5 118 L 369.5 118 L 363 122.5 Q 365.3 123.7 362.5 125 L 362.5 123 L 358 125 L 356.5 128 L 352.5 130 L 330 151.5 L 327 184.5 L 323.5 199 L 323 195.5 L 325 189.5 L 325 184.5 L 324.5 183 L 326 183.5 L 327 166.5 L 328 165.5 L 328 154.5 L 327.5 153 L 329 153.5 L 328 150.5 L 330 150.5 L 329 148.5 L 334.5 143 L 335.5 144 L 337 143.5 L 336 142.5 L 348.5 130 L 350.5 131 Q 348.7 128.5 353.5 126 L 355.5 127 Q 353.7 124.5 358.5 122 L 368.5 115 L 370 115.5 Q 369.3 113.3 371.5 114 L 375 113 L 375 111 L 378 111 Q 376.9 108.3 379.5 109 L 393 102 L 393.5 100 L 395 100.5 L 395.5 99 L 397 99.5 L 397.5 98 L 399.5 99 L 402 98 L 402.5 96 L 404 96.5 L 404.5 95 L 407 96 L 407.5 94 L 409 94.5 L 409.5 93 L 412 94 L 412.5 92 L 414 92.5 L 414.5 91 L 417 92 L 417.5 90 L 420 91 L 420.5 89 L 423 90 L 423.5 88 L 427.5 89 L 427.5 87 L 432.5 88 L 432.5 86 Z M 434 88 L 414 95 L 416 95 L 416 96 L 414 95 L 404 99 Q 406 103 408 100 L 412 102 L 414 102 L 411 100 L 415 98 L 417 99 L 417 95 L 429 93 L 428 92 L 428 91 L 431 92 L 433 91 L 432 93 L 433 95 L 433 97 L 433 113 L 431 123 L 433 126 L 433 117 L 434 116 L 434 88 Z M 415 99 Q 413 102 416 101 L 415 99 Z M 403 103 L 405 107 Q 409 108 407 104 L 406 104 L 403 103 Z M 392 108 L 392 109 L 395 109 L 392 108 Z M 432 126 L 431 132 L 432 132 L 432 126 Z M 431 132 L 430 138 L 431 138 L 431 132 Z M 430 138 L 429 143 L 430 143 L 430 138 Z M 428 143 L 428 147 L 429 147 Q 430 142 428 143 Z M 424 144 Q 423 147 426 146 Q 427 143 424 144 Z M 428 147 L 425 152 L 427 154 L 428 150 L 428 147 Z M 426 154 L 425 157 L 426 157 L 426 154 Z M 424 156 L 423 159 L 425 160 L 424 156 Z M 414 159 L 412 161 L 414 161 L 414 159 Z M 417 160 L 415 162 L 417 163 L 417 160 Z M 424 160 L 422 162 L 424 163 L 424 160 Z M 411 162 L 410 165 L 411 165 L 411 162 Z " /><path fill="rgb(236,247,248)" stroke="rgb(236,247,248)" stroke-width="1" opacity="0.8549019607843137" d="M 118.5 87 L 118.5 89 L 122.5 88 L 123 90 L 125.5 89 L 126.5 91 L 128 90.5 L 125.5 92 L 115 88.5 L 118.5 87 Z " /><path fill="rgb(236,247,248)" stroke="rgb(236,247,248)" stroke-width="1" opacity="0.8549019607843137" d="M 130.5 91 L 131 93 L 133.5 92 L 134.5 94 L 136 93.5 L 137 95.5 L 135.5 96 L 128 92.5 L 130.5 91 Z " /><path fill="rgb(236,247,248)" stroke="rgb(236,247,248)" stroke-width="1" opacity="0.8549019607843137" d="M 140.5 95 L 141.5 97 L 143 96.5 L 143.5 98 L 145 97.5 L 145.5 99 L 147 98.5 L 147.5 100 L 149 99.5 L 149.5 101 L 151 100.5 L 151.5 102 L 153 101.5 L 154.5 104 L 156.5 105 L 158 104.5 L 157.5 106 L 159.5 105 L 160.5 107 L 162 106.5 L 161.5 109 L 138 96.5 L 140.5 95 Z " /><path fill="rgb(236,247,248)" stroke="rgb(236,247,248)" stroke-width="1" opacity="0.8549019607843137" d="M 109.5 96 L 110 109.5 L 109 109.5 L 109.5 96 Z " /><path fill="rgb(236,247,248)" stroke="rgb(236,247,248)" stroke-width="1" opacity="0.8549019607843137" d="M 410.5 97 L 413 97.5 L 410.5 98 L 410.5 97 Z " /><path fill="rgb(236,247,248)" stroke="rgb(236,247,248)" stroke-width="1" opacity="0.8549019607843137" d="M 393.5 105 L 396 105.5 L 393.5 106 L 393.5 105 Z " /><path fill="rgb(236,247,248)" stroke="rgb(236,247,248)" stroke-width="1" opacity="0.8549019607843137" d="M 163 109 L 173.5 114 L 188 125.5 L 187.5 127 L 189.5 126 L 194 130.5 Q 191.8 131.8 194.5 133 L 196.5 132 L 205 140.5 Q 202.8 141.8 205.5 143 L 207 142.5 L 206.5 141 L 210 144.5 L 209 145.5 L 214.5 152 L 215.5 151 L 223 158.5 L 221.5 162 L 218 156.5 L 197.5 136 L 194.5 134 L 183.5 124 L 179 122 Q 180.1 119.3 177.5 120 L 165.5 111 L 163 111 L 163 109 Z " /><path fill="rgb(236,247,248)" stroke="rgb(236,247,248)" stroke-width="1" opacity="0.8549019607843137" d="M 110.5 114 L 111 122.5 L 110 122.5 L 110.5 114 Z " /><path fill="rgb(236,247,248)" stroke="rgb(236,247,248)" stroke-width="1" opacity="0.8549019607843137" d="M 380.5 115 L 381.5 117 L 380.5 115 Z " /><path fill="rgb(236,247,248)" stroke="rgb(236,247,248)" stroke-width="1" opacity="0.8549019607843137" d="M 111.5 126 L 112 129.5 L 111 129.5 L 111.5 126 Z " /><path fill="rgb(236,247,248)" stroke="rgb(236,247,248)" stroke-width="1" opacity="0.8549019607843137" d="M 358.5 131 L 357.5 133 L 356 132.5 L 358.5 131 Z " /><path fill="rgb(236,247,248)" stroke="rgb(236,247,248)" stroke-width="1" opacity="0.8549019607843137" d="M 112.5 132 L 113 135.5 L 112 135.5 L 112.5 132 Z " /><path fill="rgb(236,247,248)" stroke="rgb(236,247,248)" stroke-width="1" opacity="0.8549019607843137" d="M 113.5 137 L 114 140.5 L 112 141.5 L 113.5 137 Z " /><path fill="rgb(236,247,248)" stroke="rgb(236,247,248)" stroke-width="1" opacity="0.8549019607843137" d="M 114.5 142 L 115 144.5 L 114 144.5 L 114.5 142 Z " /><path fill="rgb(236,247,248)" stroke="rgb(236,247,248)" stroke-width="1" opacity="0.8549019607843137" d="M 318.5 144 L 319 147.5 L 316.5 148 L 315 147.5 L 318.5 144 Z " /><path fill="rgb(236,247,248)" stroke="rgb(236,247,248)" stroke-width="1" opacity="0.8549019607843137" d="M 115.5 146 L 116 148.5 L 114 149.5 L 115.5 146 Z " /><path fill="rgb(236,247,248)" stroke="rgb(236,247,248)" stroke-width="1" opacity="0.8549019607843137" d="M 116.5 150 L 120 160.5 L 119 160.5 L 118.5 159 L 117 159.5 L 118 156.5 L 116 156.5 L 117 153.5 L 115 153.5 L 116.5 150 Z " /><path fill="rgb(236,247,248)" stroke="rgb(236,247,248)" stroke-width="1" opacity="0.8549019607843137" d="M 314.5 151 L 313 153.5 L 312.5 155 L 312 153.5 L 314.5 151 Z " /><path fill="rgb(236,247,248)" stroke="rgb(236,247,248)" stroke-width="1" opacity="0.8549019607843137" d="M 120.5 162 L 131 185.5 L 137 194.5 Q 135.5 197.5 134 194.5 L 135 192.5 L 132 191.5 L 133 189.5 L 131 189.5 L 132 187.5 L 129 186.5 L 130 184.5 L 128 184.5 L 129 182.5 L 127 182.5 L 128 180.5 L 126 180.5 L 127 178.5 L 125 178.5 L 126 176.5 L 124 176.5 L 125 174.5 L 123 174.5 L 124 172.5 L 122 172.5 L 123 169.5 L 121 169.5 L 122 167.5 L 120 167.5 L 121 164.5 L 119 164.5 L 120.5 162 Z " /><path fill="rgb(236,247,248)" stroke="rgb(236,247,248)" stroke-width="1" opacity="0.8549019607843137" d="M 300 163 L 302 163.5 L 300 164.5 L 300 163 Z " /><path fill="rgb(236,247,248)" stroke="rgb(236,247,248)" stroke-width="1" opacity="0.8549019607843137" d="M 222.5 166 L 223 172.5 L 222 172.5 L 222.5 166 Z " /><path fill="rgb(236,247,248)" stroke="rgb(236,247,248)" stroke-width="1" opacity="0.8549019607843137" d="M 297.5 167 L 298 168.5 L 295 170.5 L 297.5 167 Z " /><path fill="rgb(236,247,248)" stroke="rgb(236,247,248)" stroke-width="1" opacity="0.8549019607843137" d="M 223.5 175 L 224 179.5 L 223 179.5 L 223.5 175 Z " /><path fill="rgb(236,247,248)" stroke="rgb(236,247,248)" stroke-width="1" opacity="0.8549019607843137" d="M 255.5 175 L 258 180.5 L 257 180.5 Q 254 178.7 255.5 175 Z " /><path fill="rgb(236,247,248)" stroke="rgb(236,247,248)" stroke-width="1" opacity="0.8549019607843137" d="M 225.5 181 L 225 182.5 L 224.5 187 L 224 182.5 L 225.5 181 Z " /><path fill="rgb(236,247,248)" stroke="rgb(236,247,248)" stroke-width="1" opacity="0.8549019607843137" d="M 277.5 183 L 279 186.5 L 278 189.5 L 280 193.5 L 279 195.5 L 279.5 197 L 278 196.5 L 279.5 199 L 281 198.5 Q 279 202 277 197.5 L 276 192.5 L 277 191.5 L 277.5 183 Z " /><path fill="rgb(236,247,248)" stroke="rgb(236,247,248)" stroke-width="1" opacity="0.8549019607843137" d="M 226.5 187 L 226 188.5 L 225.5 192 L 225 188.5 L 226.5 187 Z " /><path fill="rgb(236,247,248)" stroke="rgb(236,247,248)" stroke-width="1" opacity="0.8549019607843137" d="M 408.5 187 L 408 188.5 L 407.5 190 L 407 188.5 L 408.5 187 Z " /><path fill="rgb(236,247,248)" stroke="rgb(236,247,248)" stroke-width="1" opacity="0.8549019607843137" d="M 227.5 192 L 227 193.5 L 226.5 197 L 226 193.5 L 227.5 192 Z " /><path fill="rgb(236,247,248)" stroke="rgb(236,247,248)" stroke-width="1" opacity="0.8549019607843137" d="M 402.5 192 L 403 194.5 L 402 194.5 L 402.5 192 Z " /><path fill="rgb(236,247,248)" stroke="rgb(236,247,248)" stroke-width="1" opacity="0.8549019607843137" d="M 137.5 196 L 142 201.5 Q 140 205 138 200.5 L 138 198.5 L 137.5 197 L 136 197.5 L 137.5 196 Z " /><path fill="rgb(236,247,248)" stroke="rgb(236,247,248)" stroke-width="1" opacity="0.8549019607843137" d="M 227.5 198 L 228 200.5 L 227 200.5 L 227.5 198 Z " /><path fill="rgb(236,247,248)" stroke="rgb(236,247,248)" stroke-width="1" opacity="0.8549019607843137" d="M 322.5 200 L 323 204.5 L 313 233.5 L 301 255.5 L 296 261.5 L 299 262.5 L 294.5 264 L 295 262.5 L 294 260.5 L 298.5 255 L 300 255.5 L 299 253.5 L 301 253.5 L 300 251.5 L 303 250.5 L 302 248.5 L 304 248.5 L 303 246.5 L 307.5 238 L 308.5 240 L 309 237.5 Q 306.8 236.3 309.5 235 L 311 235.5 L 310 232.5 L 311 232.5 L 311.5 234 L 312 231.5 L 311.5 230 L 313 230.5 L 312 228.5 L 314 228.5 L 313 225.5 L 315 225.5 L 314 222.5 L 316 222.5 L 315 220.5 L 317 220.5 L 316 217.5 L 318 217.5 L 317 213.5 L 318 213.5 L 318.5 215 L 319 212.5 L 318 210.5 L 320 210.5 L 319 206.5 L 321 206.5 L 322.5 200 Z " /><path fill="rgb(236,247,248)" stroke="rgb(236,247,248)" stroke-width="1" opacity="0.8549019607843137" d="M 228.5 202 L 229 204.5 L 228 204.5 L 228.5 202 Z " /><path fill="rgb(236,247,248)" stroke="rgb(236,247,248)" stroke-width="1" opacity="0.8549019607843137" d="M 142.5 203 L 146 206.5 L 144.5 208 L 141 204.5 L 142.5 203 Z " /><path fill="rgb(236,247,248)" stroke="rgb(236,247,248)" stroke-width="1" opacity="0.8549019607843137" d="M 229.5 206 L 230.5 209 L 232 208.5 L 231 212.5 L 232 212.5 L 232.5 211 L 233 212.5 L 231.5 215 L 229 208.5 L 229.5 206 Z " /><path fill="rgb(236,247,248)" stroke="rgb(236,247,248)" stroke-width="1" opacity="0.8549019607843137" d="M 146.5 208 L 153 214.5 L 152.5 217 L 145 209.5 L 146.5 208 Z " /><path fill="rgb(236,247,248)" stroke="rgb(236,247,248)" stroke-width="1" opacity="0.8549019607843137" d="M 233.5 215 L 233 216.5 L 232.5 218 L 232 216.5 L 233.5 215 Z " /><path fill="rgb(236,247,248)" stroke="rgb(236,247,248)" stroke-width="1" opacity="0.8549019607843137" d="M 234.5 218 L 234 219.5 L 233.5 221 L 233 219.5 L 234.5 218 Z " /><path fill="rgb(236,247,248)" stroke="rgb(236,247,248)" stroke-width="1" opacity="0.8549019607843137" d="M 157.5 219 L 165 226.5 L 163.5 228 L 163 225.5 L 157.5 219 Z " /><path fill="rgb(236,247,248)" stroke="rgb(236,247,248)" stroke-width="1" opacity="0.8549019607843137" d="M 235.5 221 L 235 222.5 L 235.5 224 L 237 223.5 L 235.5 226 L 234 222.5 L 235.5 221 Z " /><path fill="rgb(236,247,248)" stroke="rgb(236,247,248)" stroke-width="1" opacity="0.8549019607843137" d="M 237.5 226 L 237 227.5 L 237.5 229 L 239 228.5 L 238 231.5 L 240 231.5 L 239 233.5 L 241 233.5 L 240 235.5 L 242 235.5 L 241 237.5 L 243 237.5 L 242 239.5 L 244 239.5 L 243 241.5 L 245 241.5 L 244 243.5 L 247 244.5 L 246 247.5 L 249 248.5 L 248 250.5 L 251 251.5 Q 249 255 247 250.5 L 236 227.5 L 237.5 226 Z " /><path fill="rgb(236,247,248)" stroke="rgb(236,247,248)" stroke-width="1" opacity="0.8549019607843137" d="M 166.5 227 L 169.5 231 L 166 229.5 L 166.5 227 Z " /><path fill="rgb(236,247,248)" stroke="rgb(236,247,248)" stroke-width="1" opacity="0.8549019607843137" d="M 171.5 231 Q 185.4 242.6 204 249.5 L 200.5 251 L 198 249.5 L 200 248.5 L 197.5 248 L 196 248.5 L 196.5 247 L 194.5 248 L 194.5 246 L 192.5 247 L 192.5 245 L 190.5 246 L 190.5 244 L 188.5 245 L 187.5 242 L 185.5 243 L 185.5 241 L 183.5 242 L 182.5 239 L 180.5 240 L 180.5 238 L 178.5 239 L 177.5 236 L 175.5 237 L 174.5 234 L 172.5 235 Q 168 233 171.5 231 Z " /><path fill="rgb(236,247,248)" stroke="rgb(236,247,248)" stroke-width="1" opacity="0.8549019607843137" d="M 205.5 250 L 212 252.5 L 209.5 254 L 209.5 252 L 206.5 253 L 206.5 251 L 205.5 250 Z " /><path fill="rgb(236,247,248)" stroke="rgb(236,247,248)" stroke-width="1" opacity="0.8549019607843137" d="M 213.5 253 L 225 256.5 L 221.5 258 L 221.5 256 L 218.5 257 L 218.5 255 L 214.5 256 L 214.5 255 L 216 254.5 L 213.5 254 L 212 254.5 L 213.5 253 Z " /><path fill="rgb(236,247,248)" stroke="rgb(236,247,248)" stroke-width="1" opacity="0.8549019607843137" d="M 251.5 253 Q 254.5 254.5 251.5 256 Q 248.5 254.5 251.5 253 Z " /><path fill="rgb(236,247,248)" stroke="rgb(236,247,248)" stroke-width="1" opacity="0.8549019607843137" d="M 329.5 254 L 331 254.5 L 329 255.5 L 329.5 257 L 326 255.5 L 329.5 254 Z " /><path fill="rgb(236,247,248)" stroke="rgb(236,247,248)" stroke-width="1" opacity="0.8549019607843137" d="M 278.5 255 L 283 256 Q 284.1 258.7 281.5 258 L 278.5 255 Z " /><path fill="rgb(236,247,248)" stroke="rgb(236,247,248)" stroke-width="1" opacity="0.8549019607843137" d="M 253.5 256 Q 257.7 257.3 257 263.5 L 255.5 263 L 251 262.5 L 256 262 Q 257.1 259.3 254.5 260 Q 250 258 253.5 256 Z " /><path fill="rgb(236,247,248)" stroke="rgb(236,247,248)" stroke-width="1" opacity="0.8549019607843137" d="M 319.5 257 L 323 258.5 L 321.5 258 Q 318.5 258.5 319.5 257 Z " /><path fill="rgb(236,247,248)" stroke="rgb(236,247,248)" stroke-width="1" opacity="0.8549019607843137" d="M 229.5 258 L 232 258.5 L 228.5 260 L 229.5 258 Z " /><path fill="rgb(236,247,248)" stroke="rgb(236,247,248)" stroke-width="1" opacity="0.8549019607843137" d="M 315.5 258 L 318 258.5 L 315.5 259 L 315.5 258 Z " /><path fill="rgb(236,247,248)" stroke="rgb(236,247,248)" stroke-width="1" opacity="0.8549019607843137" d="M 233.5 259 L 237 259.5 L 232.5 261 L 233.5 259 Z " /><path fill="rgb(236,247,248)" stroke="rgb(236,247,248)" stroke-width="1" opacity="0.8549019607843137" d="M 311.5 259 L 314 259.5 L 311.5 260 L 311.5 259 Z " /><path fill="rgb(236,247,248)" stroke="rgb(236,247,248)" stroke-width="1" opacity="0.8549019607843137" d="M 238.5 260 L 242 260.5 L 238.5 261 L 238.5 260 Z " /><path fill="rgb(236,247,248)" stroke="rgb(236,247,248)" stroke-width="1" opacity="0.8549019607843137" d="M 307.5 260 L 310 260.5 L 307.5 261 L 307.5 260 Z " /><path fill="rgb(236,247,248)" stroke="rgb(236,247,248)" stroke-width="1" opacity="0.8549019607843137" d="M 244.5 261 L 248 261.5 L 244.5 262 L 244.5 261 Z " /><path fill="rgb(236,247,248)" stroke="rgb(236,247,248)" stroke-width="1" opacity="0.8549019607843137" d="M 301.5 261 L 305 261.5 L 301.5 262 L 301.5 261 Z " /><path fill="rgb(236,247,248)" stroke="rgb(236,247,248)" stroke-width="1" opacity="0.8549019607843137" d="M 59.5 305 L 60 307 L 63.5 307 L 69.5 310 L 74 310 L 75.5 307 L 80 308.5 L 79 309.5 L 79 328.5 L 77 330.5 L 78.5 333 L 76.5 332 L 75 332.5 Q 72.4 329.6 73 323.5 L 64.5 312 Q 58.7 307.8 47.5 309 L 39 313.5 L 40 315.5 Q 38 319.2 36 317.5 L 37 321.5 L 35 321.5 L 35.5 327 L 37 326.5 L 36 329.5 L 38 329.5 L 37 331.5 Q 39 329.8 41 333.5 L 40 335.5 L 42 335.5 L 41.5 337 L 43.5 336 L 44.5 339 L 47.5 338 L 47.5 340 L 49.5 339 L 49.5 341 L 52.5 340 L 52.5 342 L 55.5 341 L 56 343 L 59.5 342 L 61 345 L 63.5 344 L 64.5 346 L 66 345.5 Q 65.3 347.8 67.5 347 L 69.5 346 L 70.5 349 L 73.5 348 L 83 356.5 L 82 358.5 L 85 359.5 L 84 361.5 L 86 361.5 L 85 365.5 L 87 365.5 L 86 370.5 L 88 370.5 Q 85.8 371.8 87 376.5 L 87.5 378 L 86 377.5 Q 84.7 382.3 87 383.5 L 85 383.5 L 86 386.5 L 84 386.5 L 85 388.5 L 82 389.5 L 83 391.5 Q 81 395.2 79 393.5 L 80 395.5 L 78.5 395 L 77 395.5 Q 79.8 397.3 75.5 399 L 73.5 398 L 73.5 400 L 70.5 401 L 68.5 400 L 66.5 401 L 66.5 400 Q 74.8 398.3 79 392.5 L 85 382.5 L 86 372.5 L 84 363.5 L 77.5 354 L 63.5 346 L 60.5 346 L 44.5 340 L 39 335.5 Q 33.5 331 34 320.5 L 38 312 L 30 318.5 Q 24 325.5 26 340.5 L 28 346.5 L 32 352 L 44.5 359 L 64.5 366 L 73 373.5 Q 76.8 378.2 75 388.5 L 70 397 L 64.5 400 Q 61.5 398.5 64.5 397 L 66.5 398 L 66 396.5 L 72 390.5 Q 74.7 386.7 73 378.5 L 67 370.5 L 67.5 369 L 65.5 370 L 64.5 367 L 62.5 368 L 62.5 366 L 60.5 367 L 60.5 365 L 58.5 366 L 58 364 L 55.5 365 L 55 363 L 51.5 364 L 51.5 362 L 43.5 360 L 42 360.5 L 42.5 359 L 40.5 360 L 40.5 358 L 38.5 359 L 38.5 357 L 36.5 358 L 35.5 355 L 33.5 356 L 26 348.5 L 27 347.5 L 26.5 345 L 25 345.5 L 26 342.5 L 24 342.5 Q 26.5 341 25 335.5 L 23 335.5 L 24 331.5 L 23.5 330 L 25 330.5 L 24 326.5 L 26 326.5 L 25 323.5 L 27 323.5 L 26 319.5 L 34.5 310 L 36.5 311 L 36.5 309 L 38.5 310 L 38.5 308 L 40.5 309 L 41.5 306 L 45.5 307 L 46.5 306 L 58.5 306 L 59.5 305 Z M 60 308 L 60 309 L 63 309 L 60 308 Z M 42 309 L 40 310 L 39 312 L 43 310 L 42 309 Z M 64 309 Q 64 312 68 312 L 74 321 L 77 330 L 77 314 L 78 313 L 78 309 L 74 312 L 64 309 Z " /><path fill="rgb(236,247,248)" stroke="rgb(236,247,248)" stroke-width="1" opacity="0.8549019607843137" d="M 130.5 305 Q 132 307.5 137.5 306 L 141.5 305 Q 143 307.5 148.5 306 L 150 305.5 L 149.5 307 L 153.5 306 L 154 308 L 157.5 309 L 159 308.5 L 158.5 310 L 161.5 309 L 161.5 311 L 163.5 310 L 164.5 312 L 166 311.5 Q 164.8 315.3 168.5 314 L 171 315 L 173.5 319 Q 177.3 318.3 178 320.5 L 177 322.5 Q 179 320.8 181 324.5 L 180.5 326 L 182 326.5 L 181 328.5 L 183 328.5 L 182.5 330 L 184 330.5 L 183.5 332 L 185 332.5 L 184 334.5 L 186 334.5 L 185 337.5 L 187 337.5 L 186 342.5 L 188 342.5 L 187 343.5 L 186.5 352 L 186 344.5 L 183 333.5 L 178 324.5 L 170.5 317 L 165 315 Q 166.3 312 162.5 313 L 153.5 309 L 154.5 311 L 160 315.5 L 168 331.5 L 170 361.5 L 169 362.5 L 168 381.5 Q 164.4 382.9 165 388.5 L 157.5 397 L 158.5 394 L 156.5 395 L 157.5 393 L 162 391 Q 162.3 384.5 166 380.5 L 168 370.5 L 168 344.5 L 167 343.5 L 166 331.5 L 163 322.5 L 159.5 317 L 158 317.5 L 159 315.5 L 154 312.5 Q 154.8 310.3 152.5 311 L 149.5 310 L 147.5 309 L 133.5 309 L 125 313.5 L 117.5 326 L 116 325.5 L 117 328.5 L 115 328.5 L 116 333.5 L 114 333.5 L 115 338.5 L 113 338.5 L 112 343.5 L 112 365.5 L 114 365.5 L 113 370.5 L 115 370.5 L 114 375.5 L 116 375.5 L 115 380.5 L 117 380.5 L 116 383.5 L 118 383.5 L 117 386.5 L 119 386.5 L 118 388.5 L 120 388.5 L 119 390.5 L 120.5 390 L 127 396.5 L 126.5 398 L 128.5 397 L 128.5 399 L 131.5 398 L 131.5 400 L 133.5 399 L 132.5 401 L 127.5 403 L 127.5 401 L 126 400.5 L 128 399.5 L 121 394.5 L 117 389.5 L 114 381.5 L 111 366.5 L 111 343.5 L 116 322.5 L 123.5 312 L 125 312.5 Q 124.3 310.3 126.5 311 L 127.5 309 Q 111.8 313.8 103 325.5 L 96 339.5 L 94 349.5 L 94 358.5 L 96 369.5 L 102 382.5 L 111.5 393 L 119.5 398 L 125 399.5 L 121.5 401 L 121.5 399 L 118.5 400 L 118.5 398 L 116.5 399 Q 112.8 397 114.5 395 L 112.5 396 L 112.5 394 L 110.5 395 Q 106.8 393 108.5 391 L 106.5 392 Q 102.3 390.2 105 388.5 L 104.5 387 Q 103.3 389.3 102 386.5 L 103 384.5 L 100 383.5 L 101 381.5 L 98 380.5 L 99 378.5 L 97 378.5 L 98 376.5 L 96 376.5 L 97 374.5 L 95 374.5 L 96 371.5 L 94 371.5 L 95 366.5 L 93 366.5 Q 95.3 365.3 94 360.5 L 92 360.5 L 93 359.5 L 93 349.5 L 92.5 348 L 94 348.5 Q 95.3 343.7 93 342.5 L 95 342.5 L 94 338.5 L 96 338.5 L 95 335.5 L 97 335.5 L 96 333.5 L 98 333.5 L 97 330.5 Q 99 326.8 101 328.5 L 100 326.5 L 102 326.5 L 101 323.5 L 109.5 315 L 111 315.5 L 112.5 313 L 114 313.5 L 115.5 311 L 117 311.5 L 117.5 310 L 119 310.5 L 119.5 309 L 122 310 L 122.5 308 L 124 308.5 L 124.5 307 L 127 308 L 127.5 306 L 130 307 L 130.5 305 Z M 129 308 L 129 309 L 131 309 L 129 308 Z M 150 308 L 150 309 L 152 309 L 150 308 Z " /><path fill="rgb(236,247,248)" stroke="rgb(236,247,248)" stroke-width="1" opacity="0.8549019607843137" d="M 193.5 308 L 196 309 Q 194.7 312.7 200.5 311 L 203 313.5 L 203 397.5 L 198 399.5 L 202.5 400 L 203.5 399 L 217.5 399 L 217.5 400 L 214.5 401 L 213.5 400 L 203.5 400 L 198.5 401 L 196.5 401 L 193.5 402 L 194 400.5 L 193 398.5 L 194.5 399 L 197 398.5 L 196.5 397 L 200.5 398 L 200.5 396 L 202 396.5 L 201.5 313 L 200.5 315 L 198.5 312 L 193.5 313 L 193 311.5 L 193 309.5 L 193.5 308 Z " /><path fill="rgb(236,247,248)" stroke="rgb(236,247,248)" stroke-width="1" opacity="0.8549019607843137" d="M 228.5 308 L 229 309.5 L 229 311.5 L 228.5 313 L 223 312 L 221.5 315 L 220.5 313 L 220 397.5 L 225.5 399 L 229.5 398 Q 231 400.5 236.5 399 L 236.5 397 Q 237.7 399.2 242.5 398 L 242.5 396 L 244.5 397 L 245.5 394 L 247.5 395 Q 245.8 393 249.5 391 L 251.5 392 L 252.5 389 L 254 389.5 L 253 387.5 L 257 384.5 L 254.5 388 L 257.5 386 L 254 390.5 Q 254.8 392.8 252.5 392 Q 248.5 399 238 399.5 L 238.5 401 L 230.5 401 L 229.5 402 L 225.5 401 L 221.5 401 L 219.5 402 L 220 400.5 L 218 396.5 L 218 380.5 L 219 378.5 L 218 377.5 L 218 334.5 L 219 333.5 L 219 312 L 224 310.5 L 197 309.5 L 227.5 309 L 228.5 308 Z M 250 392 L 248 394 L 250 394 L 250 392 Z " /><path fill="rgb(236,247,248)" stroke="rgb(236,247,248)" stroke-width="1" opacity="0.8549019607843137" d="M 324.5 308 L 325 310 L 329.5 309 L 330 311 L 333.5 310 L 334.5 312 L 336 311.5 L 336.5 313 L 338 312.5 L 338.5 314 Q 340.3 311.2 342 315.5 L 342.5 317 L 344 316.5 L 348 324.5 L 346.5 328 L 343 320.5 L 344 318.5 L 341 317.5 L 340.5 316 Q 339 318.5 337.5 315 Q 329.6 309.9 316.5 310 L 316.5 311 Q 324.6 311.4 327 317.5 L 330 324.5 L 331 336.5 Q 329.4 347.4 321.5 352 L 317 353.5 L 330.5 354 Q 339.6 352.1 344 345.5 L 346.5 339 L 348 342.5 L 346 342.5 L 347 345.5 Q 345 349.2 343 347.5 L 344 349.5 Q 342.2 353.8 340.5 351 L 339 351.5 L 339.5 353 L 337.5 352 L 337.5 354 L 335.5 353 L 335.5 355 L 332.5 354 L 332.5 356 L 331.5 355 L 319 355 Q 317.9 357.7 320.5 357 L 321.5 356 L 329 363.5 L 328 365.5 Q 330 363.8 332 367.5 L 331 369.5 Q 333 367.8 335 371.5 L 334 373.5 Q 336 371.8 338 375.5 L 337 377.5 L 340 378.5 L 339 380.5 Q 341 378.8 343 382.5 L 342 384.5 L 344 384.5 L 343 386.5 L 345 386.5 L 344 388.5 Q 346 386.8 348 390.5 L 347 392.5 L 350 393.5 L 349 395.5 L 352 396.5 L 351.5 398 L 353.5 397 L 352.5 399 L 349 398 L 344.5 391 L 342.5 395 L 341 392.5 L 343 392.5 L 344 389.5 L 325.5 364 L 325 368 Q 327.7 366.9 327 369.5 L 324 367.5 L 323 364 Q 320.3 365.1 321 362.5 L 323.5 364 Q 325.8 364.8 325 362.5 L 314.5 355 L 304.5 355 L 306 357.5 L 306 359.5 L 333 399.5 L 330 401 L 328 397.5 L 329 394.5 L 326 393.5 L 327 391.5 Q 325 393.2 323 389.5 L 324 387.5 L 322 387.5 L 323 385.5 Q 321 387.2 319 383.5 L 320 381.5 L 317 380.5 L 315 377.5 L 316 375.5 L 313 374.5 L 314 372.5 L 312 372.5 L 313 370.5 Q 311 372.2 309 368.5 L 310 366.5 L 307 365.5 L 308 363.5 L 306 363.5 L 307 361.5 L 304 360.5 L 305 358.5 L 303 358.5 L 304 356.5 L 302 356.5 L 302.5 355 L 299 355.5 L 299.5 357 L 298 356.5 L 298.5 397 L 300 396.5 L 299.5 398 L 304.5 397 Q 307.3 398.3 305 399.5 L 306 401.5 L 304.5 401 L 302.5 402 L 294.5 400 L 281 399.5 L 295.5 399 L 300.5 400 L 300.5 399 L 297 397.5 L 297 324.5 L 296 323.5 L 296 312.5 L 297.5 310 L 276 309.5 L 323.5 309 L 324.5 308 Z M 298 312 L 298 353 L 315 353 L 321 351 L 322 348 L 324 349 L 323 348 L 325 348 L 326 346 L 324 346 Q 325 343 327 345 L 329 339 L 328 324 L 326 324 L 327 321 L 325 321 L 326 319 L 325 319 L 320 315 L 321 313 L 319 314 L 316 312 L 298 312 Z " /><path fill="rgb(236,247,248)" stroke="rgb(236,247,248)" stroke-width="1" opacity="0.8549019607843137" d="M 429.5 308 L 431 310.5 L 430 312.5 L 432 312.5 L 431 314.5 L 432 316.5 L 431 316.5 L 430.5 315 L 430 324.5 L 430.5 326 Q 427.5 325.1 429 329.5 L 428 329.5 L 429 311.5 L 427.5 310 L 401.5 310 L 401.5 311 L 412.5 312 L 420 318.5 L 427 331 Q 430.7 329.5 430 332.5 L 428.5 332 L 426.5 333 L 417 319.5 Q 419.8 317.8 415.5 316 L 413 317 L 412.5 315 L 411 315.5 L 412 313.5 L 408.5 312 L 387 312 L 387 348.5 L 388.5 349 L 388.5 351 L 399.5 352 L 400.5 349 L 403.5 350 L 403.5 348 L 405.5 349 L 405 347.5 L 409.5 343 L 412 343.5 L 407.5 349 L 401 351 Q 399.8 354 403.5 353 L 409 357.5 L 415 370.5 L 413.5 370 L 411.5 371 L 412 369.5 Q 412.3 362.2 408.5 359 L 408 360.5 L 408.5 362 L 405 357.5 Q 407.3 356.3 404.5 355 L 403 355.5 L 403.5 357 L 402.5 354 Q 397.4 351.6 388.5 353 L 387 354.5 L 387 394.5 L 387 396.5 L 387.5 398 L 410.5 398 L 417 394.5 L 416 393.5 L 419.5 390 L 417.5 394 L 422 390.5 L 422 388.5 L 422.5 387 L 423.5 389 L 426 385.5 L 424 385.5 L 427 384.5 L 426 382.5 Q 428 378.8 430 380.5 L 430.5 379 L 431 380.5 L 422.5 392 Q 417.2 398.2 407 399.5 L 433 400 L 433 382.5 L 432 380.5 L 435 380.5 L 434 381.5 L 434 395.5 L 436 395.5 L 435 397.5 L 435.5 399 L 434 398.5 L 435 400.5 Q 433.8 403.3 432.5 401 L 392.5 401 L 391.5 402 Q 385.4 398.6 374.5 400 L 371.5 401 L 369.5 401 L 361.5 401 L 360.5 402 L 361 400.5 L 360 398.5 L 362.5 400 L 363.5 399 L 368 398 L 368 312.5 L 367.5 312 L 360.5 312 L 361 310.5 L 361.5 309 L 362 311 Q 367.4 309.5 369 312.5 L 370 314.5 L 370 398 L 365 399.5 L 369.5 400 L 370.5 399 L 386 399 L 386 352.5 L 387 351.5 L 386 350.5 L 386 313.5 L 385 312.5 L 386.5 310 L 363 309.5 L 428.5 309 L 429.5 308 Z M 410 344 L 407 348 L 410 346 L 410 344 Z " /><path fill="rgb(236,247,248)" stroke="rgb(236,247,248)" stroke-width="1" opacity="0.8549019607843137" d="M 440.5 308 L 441.5 309 L 463.5 309 Q 465.3 306.3 467 310.5 L 474 318.5 Q 473.3 322.3 475.5 323 L 481 327.5 L 491.5 340 L 496 343.5 L 495 346 L 497.5 346 L 505 353.5 L 504 355.5 Q 506.5 353.7 509 358.5 L 508 360.5 L 509.5 360 L 514 364.5 L 513 366.5 Q 515.5 364.7 518 369.5 L 517 371.5 Q 519 369.8 521 373.5 L 520 375.5 L 523 375.5 L 523 325.5 Q 525.7 323.8 524 317.5 L 528.5 312 L 530.5 313 L 532 310.5 L 525.5 310 L 523.5 311 L 522.5 310 L 514.5 310 L 514.5 311 L 522 316.5 L 523 322.5 L 522 322.5 L 521.5 318 L 520.5 320 L 516 313 L 512 311.5 L 512 309.5 L 512.5 308 L 513.5 309 L 532.5 309 L 534 308.5 L 533 310.5 L 534 312.5 L 531 313.5 L 529.5 316 L 528 315.5 L 526.5 319 L 525.5 317 L 525 400.5 L 525.5 402 L 519 400.5 L 524 400 L 523.5 376 L 523 379 L 520 377.5 Q 506 356.5 488.5 339 Q 486.3 339.8 487 337.5 L 473 322.5 L 469 316 L 466 314.5 L 462.5 310 L 442 310.5 L 453 320.5 L 454 325 L 457 326.5 L 456 328.5 L 457.5 328 L 463 333.5 L 480 353.5 L 475.5 350 Q 472.9 350.8 474 347.5 L 469 344 L 469 341.5 L 463.5 336 Q 460.9 336.8 462 333.5 L 458.5 332 L 456 330.5 L 455.5 329 L 454 330.5 L 454 382.5 L 456 382.5 Q 453.3 384.3 455 390.5 L 457 390.5 L 456 392.5 L 457.5 392 L 462 396.5 L 461.5 398 L 463.5 397 L 462.5 399 L 455 393.5 L 453.5 389 Q 453 395.5 448.5 398 L 445 399 L 445.5 401 L 447 400.5 Q 445.8 403.3 444.5 401 L 442.5 402 L 443 400.5 L 442 398.5 L 443.5 399 L 445 398.5 L 444.5 397 L 446.5 398 Q 444.7 395.5 449.5 393 L 451 393.5 L 450 391.5 L 452 391.5 L 451 387.5 L 453 387.5 L 452.5 384 L 451 384.5 L 452 383.5 L 452 330.5 L 452 326.5 Q 453.3 320.4 450.5 321 L 442.5 313 L 440 312.5 L 441 310.5 L 440.5 308 Z " /><path fill="rgb(236,247,248)" stroke="rgb(236,247,248)" stroke-width="1" opacity="0.8549019607843137" d="M 272.5 309 L 274.5 311 Q 279.8 309.8 281 312.5 L 281 397.5 L 279.5 398 L 275 399.5 L 279 400.5 L 275.5 401 L 273 400.5 L 273.5 397 L 278.5 398 L 279 395.5 L 279 312.5 L 278.5 312 L 272 312 L 272.5 309 Z " /><path fill="rgb(236,247,248)" stroke="rgb(236,247,248)" stroke-width="1" opacity="0.8549019607843137" d="M 416.5 312 L 427 312.5 L 421 313.5 L 421 315.5 L 424 320.5 L 422 319.5 L 419 315.5 L 420 313 Q 415.6 314 416.5 312 Z " /><path fill="rgb(236,247,248)" stroke="rgb(236,247,248)" stroke-width="1" opacity="0.8549019607843137" d="M 450.5 314 L 451.5 316 L 450.5 314 Z " /><path fill="rgb(236,247,248)" stroke="rgb(236,247,248)" stroke-width="1" opacity="0.8549019607843137" d="M 168.5 318 L 169.5 320 L 168.5 318 Z " /><path fill="rgb(236,247,248)" stroke="rgb(236,247,248)" stroke-width="1" opacity="0.8549019607843137" d="M 425.5 320 Q 428.3 321.3 426 322.5 L 427 324.5 L 424 322.5 L 425.5 320 Z " /><path fill="rgb(236,247,248)" stroke="rgb(236,247,248)" stroke-width="1" opacity="0.8549019607843137" d="M 456.5 323 Q 458.8 322.3 458 324.5 L 458.5 326 L 456.5 323 Z " /><path fill="rgb(236,247,248)" stroke="rgb(236,247,248)" stroke-width="1" opacity="0.8549019607843137" d="M 461.5 326 Q 463.8 325.3 463 327.5 L 461.5 330 L 461 328.5 L 461.5 326 Z " /><path fill="rgb(236,247,248)" stroke="rgb(236,247,248)" stroke-width="1" opacity="0.8549019607843137" d="M 348.5 328 L 348 329.5 L 348 337.5 L 349 338.5 L 347 337.5 L 347 329.5 L 348.5 328 Z " /><path fill="rgb(236,247,248)" stroke="rgb(236,247,248)" stroke-width="1" opacity="0.8549019607843137" d="M 466.5 335 L 467.5 337 L 466.5 335 Z " /><path fill="rgb(236,247,248)" stroke="rgb(236,247,248)" stroke-width="1" opacity="0.8549019607843137" d="M 411.5 339 Q 416.3 337.3 415 341.5 L 414 341.5 L 413.5 340 L 412.5 342 L 411.5 339 Z " /><path fill="rgb(236,247,248)" stroke="rgb(236,247,248)" stroke-width="1" opacity="0.8549019607843137" d="M 413.5 343 L 414 362.5 L 413 362.5 L 413.5 343 Z " /><path fill="rgb(236,247,248)" stroke="rgb(236,247,248)" stroke-width="1" opacity="0.8549019607843137" d="M 33.5 349 L 35.5 352 L 33.5 349 Z " /><path fill="rgb(236,247,248)" stroke="rgb(236,247,248)" stroke-width="1" opacity="0.8549019607843137" d="M 293.5 352 L 294.5 354 L 293.5 352 Z " /><path fill="rgb(236,247,248)" stroke="rgb(236,247,248)" stroke-width="1" opacity="0.8549019607843137" d="M 497.5 352 L 498.5 354 L 497.5 352 Z " /><path fill="rgb(236,247,248)" stroke="rgb(236,247,248)" stroke-width="1" opacity="0.8549019607843137" d="M 187.5 353 L 188 354.5 L 187 355.5 L 187 365.5 L 187.5 367 L 186 366.5 L 187 371.5 L 185 371.5 L 186 374.5 L 184 374.5 L 185 376.5 L 183 376.5 L 184 379.5 L 181 380.5 L 182 382.5 L 180 383.5 Q 182.2 384.7 179.5 386 L 178 386.5 L 179 387.5 L 171.5 395 L 169.5 394 L 168.5 396 L 167 395.5 L 165.5 398 L 163.5 397 L 163.5 399 L 161.5 398 L 161.5 400 L 159 398.5 Q 171.1 394.1 178 384.5 L 185 369.5 L 186 354.5 L 187.5 353 Z " /><path fill="rgb(236,247,248)" stroke="rgb(236,247,248)" stroke-width="1" opacity="0.8549019607843137" d="M 409.5 355 L 410.5 357 L 409.5 355 Z " /><path fill="rgb(236,247,248)" stroke="rgb(236,247,248)" stroke-width="1" opacity="0.8549019607843137" d="M 480.5 355 L 502 379.5 L 501.5 381 L 508 386.5 L 518 399.5 Q 516 403 514 398.5 L 515 396.5 Q 512.5 398.3 510 393.5 L 511 391.5 Q 508.5 393.3 506 388.5 L 507 386.5 L 505.5 387 L 501 382.5 L 480 357.5 L 480.5 355 Z " /><path fill="rgb(236,247,248)" stroke="rgb(236,247,248)" stroke-width="1" opacity="0.8549019607843137" d="M 294.5 356 L 295 371.5 L 294 371.5 L 294.5 356 Z " /><path fill="rgb(236,247,248)" stroke="rgb(236,247,248)" stroke-width="1" opacity="0.8549019607843137" d="M 312.5 356 L 315 357 L 314.5 359 L 312.5 356 Z " /><path fill="rgb(236,247,248)" stroke="rgb(236,247,248)" stroke-width="1" opacity="0.8549019607843137" d="M 308 357 Q 311.8 356.3 313 359.5 L 312.5 361 L 310 359.5 L 311 362.5 L 310 362.5 L 308 357 Z " /><path fill="rgb(236,247,248)" stroke="rgb(236,247,248)" stroke-width="1" opacity="0.8549019607843137" d="M 487.5 357 L 486.5 359 L 487.5 357 Z " /><path fill="rgb(236,247,248)" stroke="rgb(236,247,248)" stroke-width="1" opacity="0.8549019607843137" d="M 97.5 358 L 98 363.5 L 97 363.5 L 97.5 358 Z " /><path fill="rgb(236,247,248)" stroke="rgb(236,247,248)" stroke-width="1" opacity="0.8549019607843137" d="M 81.5 364 L 82 367.5 L 81 367.5 L 81.5 364 Z " /><path fill="rgb(236,247,248)" stroke="rgb(236,247,248)" stroke-width="1" opacity="0.8549019607843137" d="M 205.5 365 L 206 377.5 L 205 377.5 L 205.5 365 Z " /><path fill="rgb(236,247,248)" stroke="rgb(236,247,248)" stroke-width="1" opacity="0.8549019607843137" d="M 68.5 366 L 71 367.5 L 69.5 368 L 68.5 366 Z " /><path fill="rgb(236,247,248)" stroke="rgb(236,247,248)" stroke-width="1" opacity="0.8549019607843137" d="M 98.5 366 L 99 368.5 L 98 368.5 L 98.5 366 Z " /><path fill="rgb(236,247,248)" stroke="rgb(236,247,248)" stroke-width="1" opacity="0.8549019607843137" d="M 494.5 368 Q 496.8 367.3 496 369.5 L 497.5 372 L 494.5 368 Z " /><path fill="rgb(236,247,248)" stroke="rgb(236,247,248)" stroke-width="1" opacity="0.8549019607843137" d="M 99.5 371 L 100 373.5 L 99 373.5 L 99.5 371 Z " /><path fill="rgb(236,247,248)" stroke="rgb(236,247,248)" stroke-width="1" opacity="0.8549019607843137" d="M 317.5 372 L 318.5 374 L 317.5 372 Z " /><path fill="rgb(236,247,248)" stroke="rgb(236,247,248)" stroke-width="1" opacity="0.8549019607843137" d="M 501 373 L 503 373.5 L 501 374.5 L 501 373 Z " /><path fill="rgb(236,247,248)" stroke="rgb(236,247,248)" stroke-width="1" opacity="0.8549019607843137" d="M 261.5 375 L 264.5 376 L 266 375.5 L 265.5 402 L 264.5 401 L 241 400.5 L 250.5 399 L 252.5 400 L 254.5 399 L 255.5 400 L 264 400 L 264 378.5 L 265 377.5 L 263 377 L 258.5 385 L 257 382.5 L 261 381 L 260 377.5 L 262 376.5 L 261.5 375 Z " /><path fill="rgb(236,247,248)" stroke="rgb(236,247,248)" stroke-width="1" opacity="0.8549019607843137" d="M 430.5 375 L 433.5 376 L 435 375.5 L 433.5 378 L 431 377.5 L 430.5 375 Z " /><path fill="rgb(236,247,248)" stroke="rgb(236,247,248)" stroke-width="1" opacity="0.8549019607843137" d="M 26.5 376 L 29.5 377 L 31 376.5 L 30 378.5 L 32 378.5 L 31 380.5 L 33 380.5 L 32 383.5 L 34 383.5 L 33 385.5 L 35 385.5 L 34 387.5 L 36 387.5 L 35 389.5 L 36.5 389 L 44 396.5 L 42.5 399 L 46.5 397 L 46.5 399 L 49.5 398 L 49.5 400 L 53.5 399 L 54 401 L 62.5 400 L 65 401 L 64.5 403 Q 63.8 400.3 59.5 401 L 59.5 402 Q 61.8 401.3 61 403.5 L 59.5 403 Q 54 401.5 52.5 404 L 51.5 401 L 46.5 403 L 47 401.5 L 46.5 400 L 43.5 402 L 43.5 400 L 40.5 401 L 40.5 399 L 38.5 400 L 38.5 398 L 35.5 399 L 33.5 398 Q 35.3 400.5 30.5 403 L 27.5 402 L 26 402.5 L 27 401.5 L 27 377.5 L 26.5 376 Z M 29 378 L 28 401 L 36 396 L 38 397 L 40 397 L 33 389 L 29 378 Z " /><path fill="rgb(236,247,248)" stroke="rgb(236,247,248)" stroke-width="1" opacity="0.8549019607843137" d="M 502.5 376 L 504 378.5 L 502 377.5 L 502.5 376 Z " /><path fill="rgb(236,247,248)" stroke="rgb(236,247,248)" stroke-width="1" opacity="0.8549019607843137" d="M 107.5 382 L 109 384.5 L 108 384.5 L 107.5 382 Z " /><path fill="rgb(236,247,248)" stroke="rgb(236,247,248)" stroke-width="1" opacity="0.8549019607843137" d="M 176.5 382 L 175.5 384 L 176.5 382 Z " /><path fill="rgb(236,247,248)" stroke="rgb(236,247,248)" stroke-width="1" opacity="0.8549019607843137" d="M 521.5 384 L 522 396.5 L 521 396.5 L 521.5 384 Z " /><path fill="rgb(236,247,248)" stroke="rgb(236,247,248)" stroke-width="1" opacity="0.8549019607843137" d="M 110.5 386 L 109.5 388 L 110.5 386 Z " /><path fill="rgb(236,247,248)" stroke="rgb(236,247,248)" stroke-width="1" opacity="0.8549019607843137" d="M 328.5 388 L 332 393.5 L 331 393.5 L 328.5 388 Z " /><path fill="rgb(236,247,248)" stroke="rgb(236,247,248)" stroke-width="1" opacity="0.8549019607843137" d="M 32.5 390 L 33.5 392 L 32.5 390 Z " /><path fill="rgb(236,247,248)" stroke="rgb(236,247,248)" stroke-width="1" opacity="0.8549019607843137" d="M 286.5 391 L 287 394 Q 291.1 392.7 290 396 L 286.5 394 L 284.5 397 L 285 395.5 L 286.5 391 Z " /><path fill="rgb(236,247,248)" stroke="rgb(236,247,248)" stroke-width="1" opacity="0.8549019607843137" d="M 294.5 391 L 295 395.5 L 294 395.5 L 293 392.5 L 294.5 391 Z " /><path fill="rgb(236,247,248)" stroke="rgb(236,247,248)" stroke-width="1" opacity="0.8549019607843137" d="M 381.5 391 Q 384.9 390.1 383 395.5 L 381 394.5 L 382 392.5 L 381.5 391 Z " /><path fill="rgb(236,247,248)" stroke="rgb(236,247,248)" stroke-width="1" opacity="0.8549019607843137" d="M 116 392 Q 119 391 118 394 Q 115 395 116 392 Z " /><path fill="rgb(236,247,248)" stroke="rgb(236,247,248)" stroke-width="1" opacity="0.8549019607843137" d="M 164.5 392 L 163.5 394 L 164.5 392 Z " /><path fill="rgb(236,247,248)" stroke="rgb(236,247,248)" stroke-width="1" opacity="0.8549019607843137" d="M 373.5 394 L 378 396.5 L 375.5 397 L 373.5 394 Z " /><path fill="rgb(236,247,248)" stroke="rgb(236,247,248)" stroke-width="1" opacity="0.8549019607843137" d="M 335 395 Q 338 394 337 397 Q 334 398 335 395 Z " /><path fill="rgb(236,247,248)" stroke="rgb(236,247,248)" stroke-width="1" opacity="0.8549019607843137" d="M 453.5 395 L 455 397.5 L 454 397.5 L 453.5 395 Z " /><path fill="rgb(236,247,248)" stroke="rgb(236,247,248)" stroke-width="1" opacity="0.8549019607843137" d="M 153.5 396 L 156 397.5 L 153 399.5 L 156 401.5 L 154.5 401 L 150.5 400 L 150.5 401 L 153 402.5 L 151.5 402 L 147.5 401 L 148.5 404 L 147.5 403 L 132.5 403 L 131 403.5 L 134.5 401 Q 144.8 402.8 150 399.5 L 149.5 398 L 151.5 399 L 151.5 397 L 153.5 398 L 153.5 396 Z " /><path fill="rgb(236,247,248)" stroke="rgb(236,247,248)" stroke-width="1" opacity="0.8549019607843137" d="M 156.5 399 L 159 400.5 L 157.5 400 L 156.5 399 Z " /><path fill="rgb(236,247,248)" stroke="rgb(236,247,248)" stroke-width="1" opacity="0.8549019607843137" d="M 452.5 399 L 453.5 400 L 464 400.5 L 448.5 401 L 448.5 400 L 452.5 399 Z " /><path fill="rgb(236,247,248)" stroke="rgb(236,247,248)" stroke-width="1" opacity="0.8549019607843137" d="M 334.5 400 L 348.5 400 L 349.5 401 L 351.5 400 L 351.5 401 L 349.5 402 L 348.5 401 L 334.5 401 L 334.5 400 Z " /></svg>
